<?xml version="1.0" encoding="UTF-8"?>
<svg id="Layer_1" data-name="Layer 1" xmlns="http://www.w3.org/2000/svg" version="1.1" viewBox="0 0 300 300">
  <defs>
    <style>
      .cls-1 {
        fill: #221e1f;
        fill-rule: evenodd;
        stroke-width: 0px;
      }
    </style>
  </defs>
  <path class="cls-1" d="M275.94,139.58c.07-15.46-9.13-33.29-23.6-40.24-3.9-.91-8.49-.42-8.81-5.51-2.29-1.84-1.76-4.75-2.38-7.39-1.68-2-2.32-4.11-2.51-6.77-2.89-2.51-1.49-5.04-4.39-7.21-2.62-6.1-7.48-11.32-12.79-15.21-1.75-2.87-5.54-1.33-7.95-2.92-1.13-.95-2.46-1.93-3.93-1.18-1.89,1.72-4.34,1.92-6.78,2.29-1.24.5-2.08,1.83-3.51,2.06-3.7,2.19-6.23,6.07-9.35,9.02-.36,2.16-1.66,3.56-2.97,5.19-.41,1.66-1.39,2.94-2.27,4.35-.51,1.82-.67,3.71-2.32,4.95-1.1,1.28-.44,2.87-1.03,4.28-.98,1.14-1.96,2.33-2.95,3.45-2.55,1.24-5.38-.72-7.34-2.23-5.91-.97-4.29-3.86-11.81-2.43-1.47,1.24-2.8,2.37-4.88,2.36-3.44,2.25-7.53,3.81-9.47,7.65-3.34,3.19-7.45,2.14-6.92-3.04-.03-2.92-1.53-2.67-2.2-4.77-.33-1.22-.37-2.68-1.24-3.71-1.92-2.42-1.84-5.12-4.04-7.55-2.29-3.2-4.03-7.18-7.07-9.73-2.55-3.32-6.96-4.44-10.01-7.18-4.34.18-10.1-1.75-13.35,1.77-7.31,2.28-12.09,9.67-15.99,15.8-.75,1.64-1.56,3.12-2.75,4.51-.7,2.02-.69,4.33-2.49,5.81-1.18,1.56-.12,4.17-1.87,5.36-4.28,10.27-6.21-1.3-20.7,3.55-16.41,7.83-21.64,26.81-26.85,42.68-.49,6.48,1.06,13.02.71,19.6.17,1.82,2.08,2.69,2.42,4.44.35,1.24.04,2.88.7,4.02,1.29,1.28,2.53,2.44,2.97,4.31,1.71,2.06,3.07,4.58,5.82,5.33,1.83,1.24,3.16,3.03,5.54,3.3,13.15,7.07,11.04-4.65,11.5,17.08.37,2.35,3.28,3.18,5.34,2.67,2.35-1.07,2.61-4.45,3.22-6.71-.39-3.3-1.63-6.65.76-9.6,2.46-3.06,8.19.68,10.1-3.43,3.4-1.83,6.91-.09,6.4,4.12.66,2.46,3.07,3.65,2.71,6.5.06,1.85.57,2.35,1.92,3.38,1.41,2.57,2.91,4.97,4.97,7.14,1.05.84,2.7.9,3.64,1.99,1.92,2.7,4.59,1.64,6.64,4.08,2.65,1.54,7.76-.89,8.86,2.85,1.39,4.39-2.18,12.27,2.14,14.92,4.45,2.25,6.28-2.81,6.64-6.37.09-2.4-1.61-4.69-.65-7.08,1.83-5.93,8.81-4.02,7.41,2.18.66,5.27-1.88,12.34,2.12,16.38.76,2.32,1.06,4.56,3.22,6.06.64,1.69,1.38,3.35,2.84,4.48,1.89,2.44,1.07,1.98,4.04,3.19,1.75,1.18,2.92,2.96,5.24,3.18,1.67.53,2.58,2.41,4.52,2.27,14.96-3.19-.42,21.05,13.34,17.16,5.94-6.51-4.18-18.82,10.16-17.24,2.7-.16,3.12-3.43,6.55-3.04,2.72-2.4,5.87-4.86,7.88-8,2.53-.83,1.88-3.43,3.23-5.15,5.43-3.99-.48-13.52,2.96-18.73,17.84-8.21,1.87,17.36,14.64,16.08,2.65-1.42,3.57-5.85,3.09-8.7-1.13-2.59-.58-6.26,1.54-8.27,3.76-1.69,7.08.94,10.13-3.15,5.49-.58,8.51-5.83,12.43-9.2,4.74-6.82,4.17-.68,5.87,3.08,4.25,4.12,7.61-1.5,7.75-5.67-.61-3.47-1.91-9.26,2.67-10.58,2.72-.51,6.6.88,8.21-2.31,1.28-1.03,3.33-.28,4.44-1.55.97-1.79,3.07-2.41,4.07-4.22,1.28-.68,2.08-1.88,2.76-3.1,1.98-.8,2.16-2.51,2.49-4.39,2.51-3.05,2.8-3.15,2.76-7.38-.44-6.72,1.87-18.83-2.2-23.91ZM185.08,90.75c2.49-1.26,1.71-3.93,2.36-6.31,1.7-1.88,2.49-3.58,2.83-6.15,2.05-2.81,3.8-5.82,5.27-8.93,1.45-.72,1.93-2.09,2.98-3.14,1.76-.89,1.29-1.19,2.34-2.36,1.52-.45,2.25-1.84,3.36-2.68,4.94-1.19,12.76-1.31,15.9,2.72.56,1.23,1.43,1.98,2.62,2.55.53.6.62,1.54,1.39,1.93,1.95.88,1.18,1.58,2.42,2.78,1.89.89,1.62,2.96,2.21,4.59,2.8,1.44,1.67,3.75,3.12,5.89,1.58.96,1.89,2.3,1.89,4.5.78,4.84,2.84,1.57,2.47,9.75.65,2.01,2.42,2.08.31,4.18-2.77,4.21-7.66,6.93-9.79,11.65-1.41,1.43-2.11,3.21-2.79,5.06-1.12,1.41-2.34,2.75-2.45,4.67-.68,3.76-7.7,1.27-9.72-.07-2.54-2.56-6.84-.79-10.14-1.29-1.15-.04-1.68.45-2.29,1.37-2.3,2.5-5.35-.71-6.75-2.63.06-4.61-3.27-6.16-3.17-10.76-3.51-2.9-1.31-3.22-3.47-5.88-2.67-1.87-1.86-8.92-.88-11.44ZM138.7,116.75c1.9-1.23,1.74-3.31,2.15-5.26,2.08-2.06,1.95-2.97,2.88-5.53,3.65-3.68,5.33-9.55,10.21-12.06,2.85-3.75,10-2.11,13.63-2.18,3.67,1.19,6.7,4.66,8.93,7.69.28,1.01.33,2.35,1.51,2.77,1.63.69.82,1.98,2.61,3.17,1.35.89.96,2.7,1.57,4.07,1.26,1.35,2.53,2.23,2.4,4.5.26,3.21,2.53,1.51,2.59,7.25-.21,1.64.87,2.69,1.74,3.9.94,2.59-1.72,5.04-2.66,7.25-2.03,1.24-1.49,1.79-2.3,3.67-1.14,1.34-2.17,2.46-2.5,4.26-.79,1.34-1.82,1.49-2.12,3.35.06,2.37-2.12,3.63-2.6,5.73-.19,2.01-.78,3.9-2.43,4.97-.41,3.03-1.15,5.16-4.72,4.07-3.25-2.52-7.32-2.25-11.32-1.79-1.82.91-4.1,3.21-6.15,1.42-1.19-1.39-.89-3.68-2.25-4.99-1.88-2-.59-5.67-3.13-7.53-1.16-3.15-2.44-6.03-4.03-9.02-2.45-3.74-6.38-7.57-6.2-12.3,2.22-1.85.84-5.2,2.18-7.39ZM79.19,170.98c-1.23,1.06-3.2.55-4.66,1.04-3.7,4.79-7.1.94-9.07-3.05-9.88-3.5-3.94,8.91-12.66,4.09-1.54-1.92-5.04-1.04-6.46-2.81-4.41-3.93-2.76-1.9-5.35-7.02-3.48-1.61-1.75-6.99-2.08-10.05-1.04-9,1.72-16.78,3.99-25.17.5-2.02,2.14-2.64,2.48-4.6.57-5.02,1.99-3.13,2.96-6.83,4.92-9.84,15.63-18.25,24.89-7.85,2.63,2.71,3.11,4.99,5.58,8.03,1.25,1.81,1.17,4.6,3.17,6.06,1.13,2.47.87,5.34,2.78,7.52,1.64,3.65.34,8.49,2.86,11.85,1.15,7.39-3.64,23.3-8.45,28.77ZM86.41,109.7c-1.97-3.25-4.81-5.51-5.24-9.48-.29-2.62.23-4.56,2.26-6.08.08-4.74,1.78-5.84,2.82-8.66.29-4.13,1.7-2.68,2.63-5.12.19-1.82.95-3.03,2.24-4.15.65-.99.45-2.06,1.72-2.59,1.94-1.58,2.9-4.43,5.44-5.43,1.38-1.5,2.29-2.67,4.52-2.85,3.18-3.06,6.87-2.38,10.08.25,5.12.56,10.18,8.36,12.26,12.65,1.2,1.54,2.55,2.83,2.47,4.99.96,2.77,2.55.46,2.62,6.44,1.23,4.32,3.06.84,2.64,8.65.19,1.87,1.91,1.12,2.13,3.28.23,3.83,1.73,9.35-1.4,12.06-2.18,2.79.84,7.85-6.64,6.89-20.11-8.38-28.39,16.75-32.3,7.95-1.53-6.71-5-12.79-8.25-18.81ZM134.12,183.73c-1.9,1.47-1.19,4.3-2.24,6.14-1.9,1.71-1.67,4.3-3.01,6.24-2.25.94-3.11,5.17-5.7,2.55-3.38-3.15-2.03-5.67-8.02-4.35-2.09.62-.75,4.29-3.41,5.22-2.57.96-4.24-1.57-6.39-2.18-5.43-.73-3.14-1.71-6.56-3.55-2.36-1.42-1.53-3.95-2.99-5.01-4.87-3.81-.84-15.17-1.72-21.13.88-4.8.91-9.93,2.46-14.44,1.67-4.45,5.64-7.67,7.02-12.17,9.05-14.73,19.64-16.98,28.79-1.02,2.45,2.5,2.67,6.19,4.91,8.95.57,2,.02,4.4,1.75,5.93,5.77,9.3-1.19,20.29-4.89,28.81ZM187.85,224.23c-.04,2.5-2.69,1.65-2.59,4.4.1,2.29-.65,3.62-2.61,4.52-.81,2.26-2.58,2.16-3.78,4.2-1.64,2.5-5.56.49-7.09,3.54-5.28,2.88-5.23-6.54-10.08-5.29-3.41-.01-3.05.76-3.89,3.65-.71,2.55-4.13,2.25-5.77.88-1.73-2-4.66-.99-6.33-2.67-4-3.63-3.15-2.35-5.48-7.17-5.31-8.61-1.87-33.61,3.25-42.78,5.08-10.68,14.88-26.44,27.53-15.07,5.77,6.44,8.36,15.05,13.11,22.36,2.68,4.79,1.2,11.29,3.44,16.24,1.03,3.9.43,9.57.28,13.2ZM233.36,188.12s-.03-.03-.05-.05c.06.06.12.12.05.05ZM231.77,191.23c-.46,2.19-.48,4.32-2.8,5.35-.7,1.76-1.88,2.49-3.34,3.5-.83,2.6-3.44,2.03-5.62,2.53-3.68,4.78-7.1.93-9.06-3.05-8.24-2.14-4.82,2.14-8.55,5.05-5.31-.15-6.72-7.47-7.9-11.87-2.04-1.76-1.7-4.29-2.23-6.82-2.67-2.74-1.76-3.94-3.21-6.75-9.28-13.85-4.23-29.11,5.15-41.49,8.8-10.43,20.95-6.03,27.58,3.8,5.96,9.07,7.28,19.88,11.73,29.48,2.01,6.3.94,14.37-1.75,20.27ZM269.49,165.56c-1,1.88.2,5.05-2.47,5.76-1.39.9-1.41,2.84-3.29,3.23-1.22,1.43-1.94,3.04-4.21,2.84-2.97-.5-4.26,4.21-7.34,2.11-2.3-1.32-2.45-4.63-4.9-5.34-2.46-.61-6.81,1-6.77-2.68,1.41-9.43-3.62-18.58-6.57-27.44-3.49-5.43-7.99-12.63-2.91-18.59,9.03-24.63,24.14-20.29,32.19,1.99,1.63,2.48,2.4,5.17,3.06,8.02,2.06,1.93,3.41,4.19,2.89,7.6,0,1.06-.22,2.1.51,2.89,3.06,3.21,4.03,16.29-.18,19.62ZM176.2,180.06s-.07-.14-.07-.15c.02.04.05.1.07.15Z"/>
</svg>