<?xml version="1.0" encoding="UTF-8"?>
<svg id="Layer_1" data-name="Layer 1" xmlns="http://www.w3.org/2000/svg" version="1.1" viewBox="0 0 300 300">
  <defs>
    <style>
      .cls-1 {
        fill: #231f20;
        stroke-width: 0px;
      }
    </style>
  </defs>
  <path class="cls-1" d="M283.94,149.45c-25.04-6.03-35.66-49.7-54.3-66.99-13.57-10.76-4.91-9.12,5.66-5.19.61-3.91-8.54-4.43-10.97-7.04-23.99-23.26,5.76-3.96,18.18,0,9.14-2.87-42.54-14.73-26.56-25.16,10.66,6.39,22.42,14.57,35.96,14.21,3.86,1.14,14.27,16.25,17.02,12.55-12.51-16.7-42.76-52.92-66.76-38.12-28.1-6.96-25.74-50.48-52.78-8.46-5.25,4.5-5.61-17.1-21.88-14.7-18.84,4.85-24.71,29.98-38.91,42.28-6.91,21.45-14.58,26.46-29.58,35.82,23.28,4.26,26.45-24.95,37.36-39.1,9.31-6.84,33.51-52.97,26.25-20.38-2.56,13.29,16.57,32.19-3.82,36.82-16.98,8.62,14.92,21.5-5.38,30.46-6.85,6.29,8.08-.52,8.52-4.64,1.74-6.41,5.66-.06,8.97,1.49,7.74.39-30.8-25.71-8.59-23.59,9.42,11.39,23.08,25.11,36.93,29.6-3.86-7.79-45.2-26.31-30.62-34.47,8.71,6.04,27.84,28.97,36.01,23.83-12.43-6.17-25.19-14.32-33.07-25.85-5.42-23.77,19.4,12.91,29.39,15.63,6.07,9.6,39.27,7.95,25.58,20.45-1.26,11.44-33.45,11.74-24.82,17.19,19.98,10.15,62.71-69.83,51.39-25.52,6.26,11.2,1.05,19.43-8.62,27.59-8.9,10.12,4.92,29.19-5.24,37.72-11.26-5.64-13.78-.67-23.15.75-49.5-20.81-22.83-71.73-66.06-15.75.15,9.28-17.58,10.23-13.68,15.8,17.64,1.31,16.01-23.53,31.19-27.67,8.84-8.93,3.92-5.41,7.69,4.63,9.57,9.74-14.18,5.26-10.49,17.01-.59,6.99,12.37,10.99,5.4,17.22-35.4,5.1-24.33-3.28-48.08,31.64-4.86,6.86-103.39,57.56-62.33,45.52,31.47-25.97,64.87-31.58,86.61-70.4,4.03-1.18,2.78,2.86,1.67,4.95-8.75,23.08,18,37.4-11.2,48.94,1.5,11,13.95,20.41-1.92,28.23,6.71,4.03,10.81-16.93,19.26-5.16,6.72-.4-17.31-14.89-15.12-21.59,6.88-9.11,13.7,10.35,20.18,13.37,3.74,6.05,26.23,11.96,13.29,18.4-19.13,9.33,12.81,6.72,15.54-15.89,7.81-1.31,19.84-21.69,16.72-5.32-.48,3.63,7.7,7.49,2.24,9.69-30.9,10.98,13.5,16.43-17.7,42.35,3.99,1.26,8.13-9.75,12.82-7.87,3.66,2.19,4.65.02,1.55-2.46-1.27-11.45,12.42,4.83,17.64,5.76,7-.61-30.27-20.07-22.37-30.85,7.27,1.03,27.02,30.29,35.11,24.19-9.55-4.77-18.46-10.96-25.06-19.49-2.24-2.22-8.31-8.16-2-9.16,7.9-2.13,16.79,22.05,22.88,15.87-7.58-3.26-30.26-31.51-19.58-33.1,6.92,17.2,21.04,36.05,41.2,36.46-53.05-40.39-31.79-16.48.51-57.25.5-.74,1.78-2.82,2.54-1.27,10.35,24.5-11.21,9.19-1.1,27.49,4.32,5.34-15.21,16.18-5.85,13.82,11.34-7.4,3.18-12.47,18.7-6.09,1.97.67,13.14,4.45,9.61.27-6.49-2.01-13.59-3.32-19.21-7.4-14.33-23.83,35.24,12.32,45.42.68-60.44-51.69-22.78-46.77-83.39-6.1-7.58,2.24-3.86-17.13-17.54-8.33-46.24-34.33,7.93-36.1,23.01-68.05,3.08,1.22-.76,8.97,1.41,12.33-2.58,5.5,4.41,7.83.54,10.88-8.14,2.95-6.77,7.88-2.46,13.85,1.25,2.3-4.86,15.82-1.43,14.95,3.91-10.87,4.46-4.62,12.24-2.05,3.1-1.42-8.86-6.54-8.37-9.97-7.4-22.14.97-8.04,10.7-2.18,3.86-2.03-10.55-8.52-8.53-12.54,2.45-3.74,1.08-5.83-.42-9.54,1.78-8.97,21.32,30.97,27.22,20.51-11.71-6.48-28.79-23.2-25.63-37.24,7.69-4.84,15.29,32.9,39.64,34.3,5.19-.8,1.58-5.46-2.1-5.14-9.96-2.06-34.2-24.37-22.33-32.27,3.14,3.57,31.04,22.39,15.11,9.16-4.17-2.72-19.79-15.15-11.95-17.99,8.32,5.87,38.16,27.49,42.99,21.01-14.25-6.89-44.81-15.73-45.62-32.32,13.68,6.51,40.98,30.8,52.16,23.38-12.21-1.49-65.12-26.03-49.31-35.36,14.17,9.53,34.62,24.76,51.61,24.45-9.46-6.49-60.1-19.45-47.93-33.05,10.6.83,74.82,46.91,72.23,34.52ZM246.41,235.38c13.43,11.43-25.29.41-27.57-6.97,1.19-13.79,18.44,6.81,27.57,6.97ZM218.08,209.53c3.58-5.07,13.02,10.94,16.02,13.35,16.88,15.21-24.33-4.57-16.02-13.35ZM114.51,173.04c13.65,2.49,18.03,24.49,23.79,35.12-7.39-8.2-25.47-24.53-23.79-35.12ZM138.64,253.76c-7.74-2.78-42.18-29.42-24.84-29.89,3.05,11.39,35.8,20.73,24.84,29.89ZM146.71,240.35c-6.54,12.95-39.66-20.23-31.3-27.81,7.54,11.91,21.93,19.22,31.3,27.81ZM152.79,238.06c-15.9-2.84-52.33-37.57-41.78-47.5,3.64,18.06,46.07,39.94,41.78,47.5ZM142.44,217.21c35.45,34.34-36.63-18.37-32.34-36.62,11.09,3.51,19.5,28.34,32.34,36.62ZM164.57,176.13c-7.68,3.99-23.11,26.54-29.5,14.47-2.56-6.96-15.4-21.04-.17-15.01-8.68-15.93,9.11-.77,15.77,2.26,9.26,1.86-38.2-26.98-20.17-31.83,7.63,9.41,21.47,26.72,33.19,25.71-6.71-4.28-43.34-27-23.84-29.52,1.19,4.87,25.13,25.06,16.78,14.25-9.6-7.62-18.97-18.46-19.84-30.9.74-11.44,10.59,29.97,37.49,35.14,7.22,1.82-7.09,13.54-9.71,15.43ZM213.6,34.12c8.94-1.55,26.52,14.66,33.36,20.6-4.02,6.55-35.11-11.41-33.36-20.6ZM168.66,16.51c4.31-13.19,11.52,11.39,16.57,14.28,2.03,4.11,11.98,4.87,10.97,9.34-8.56,17.86-28.46-15.97-27.55-23.62ZM168.82,28.21c6.26,4.65,10.35,16.25,18.68,20.09-2.16,10.39-27.32,23.92-20.99,2.09-.93-2.33-4.25-4.71-3.41-7.4,2.97-4.95,12.33,12.11,15.44,9.19-.72-5.19-14.55-8.46-8.28-14.84,2.56-3.16-4.19-6.44-1.45-9.12ZM154.81,26.22c6.1-8.29,13.54-20.94,11.03-2.45-1.64,5,4.49,11.64,0,14.77-14.23,5.86,3.71,11.39-2.27,17.34-5.26-6.14-19.41-22.85-8.75-29.67ZM130.07,15.68c4.19-4.34,12.54,11.26,13.73,14.54,18.57,32.25-12.48-3.78-13.73-14.54ZM127.02,22.29c12.37,9.58,25.08,31.22,37.44,44.64-8.43,2.08-39.18-34.77-37.44-44.64ZM188.49,87.38c-22.36-2.4-67.28-36.28-61.5-55.58,13.64,25.37,38.26,40.75,61.5,55.58ZM190.52,88.09c-.18.31-.95.2-.89-.22.12-.46,1.1-.25.89.22ZM216.39,74.18c-9.56-4.25-14.16,4.66-19.96,9.94-12.78-2.6-36.3-17.1-13.23-23.19,44.21-46.44,17.07-22.59,34.01,7.82,2.73,1.82,4.37,7.72-.82,5.43ZM220.41,81.67c3.13-1.91,25.85,26.76,16.13,21.86-5.74-5.33-27.59-13.02-16.13-21.86ZM216.11,94.02c4.89-3.18,17.79,14.28,26.72,15.06,5.88,8.05,7.79,13.75-3.78,5.91-11.04-6.29-18.73-7.92-22.94-20.98ZM256.49,133.63c-1.48,2.11-46.25-20.61-42.28-22.57,3.32-8.1,6.74-4.35,12.31-.59,9.33,8.28,27.28,9.5,29.98,23.16Z"/>
</svg>