<?xml version="1.0" encoding="UTF-8"?>
<svg id="Layer_1" data-name="Layer 1" xmlns="http://www.w3.org/2000/svg" version="1.1" viewBox="0 0 300 300">
  <defs>
    <style>
      .cls-1 {
        fill: #231f20;
        fill-rule: evenodd;
        stroke-width: 0px;
      }
    </style>
  </defs>
  <path class="cls-1" d="M277.43,184.75c-40.16-20.32-48.91-73.43-78.62-104.97-65.15-72.9-51.08,45.75-102.4,47.81-42.4,9.47-11.32,52.89-82.99,54.34-3.94,15.94,31.33.5,40.93-.13,22.39-1.54,19.96-40.84,38.12-44.73,26.62,22.65,42.61-18.09,51.49-4.37-7.42,15.04-.66,30.28-.88,45.46-26.69,14.83-1.29,16.68-9.24,35.92-2.67,7.38-8.1,13.69-10.27,21.18,8.82,3.55,23.81-30.86,13.15-40.3-.51-14.85,26.29,23.82,37.09,22.95,8.52-4.68-15.87-12.69-18.94-18.63-37.61-47.55,60.98,34.18,75.78,23.71-21.96-13.04-50.71-22.71-71.41-41.04-21.28-16.27-13.39-30.21,7.24-8.26,7.12,14.97,105.52,49.12,61.5,27.86-18.31-6.3-90.32-41.22-78.59-58.51,21.71,25.16,61.21,38,93.5,44.35-8.12-11.35-37.61-9.99-50.13-23-2.65-2.58.98-5.27,2.47-7.46,2.34-7.11,4.65-11.82,11.4-5,12.83,11.98,32.67,12.8,44.85,24.55,8.1,8.76,19.1,18.95,32.08,16.93,7.66-3.54-1.53-8.43-6.14-8.63ZM112.8,134.73c.66.44-.16.44,0,0h0ZM160.07,143.1c-15.45-33.26-19.49-24.76-44.83-9.71,18.32-15.57,26.28-39.38,36.55-60.81,25.78-22.49,57.08,32.16,66.12,52.58-52.69-19.3-7.89,62.4-57.84,17.94ZM203.4,143.76c-25.9-28.89,30.79-3.04,33.67,12.86,7.63,17.4-27.94-7.9-33.67-12.86ZM185.27,220.25c-5.21,1.26,1.54,7.25,4.53,5.69,2.46-2.8-1.51-6.26-4.53-5.69Z"/>
</svg>