<?xml version="1.0" encoding="UTF-8"?>
<svg id="Layer_1" data-name="Layer 1" xmlns="http://www.w3.org/2000/svg" version="1.1" viewBox="0 0 300 300">
  <defs>
    <style>
      .cls-1 {
        fill: #000;
        stroke-width: 0px;
      }
    </style>
  </defs>
  <path class="cls-1" d="M273.69,118.2c-1.24-4.33-3.49-7.51-6.69-9.49,1.29-3.78.96-8.49-.94-12.77-1.85-4.17-4.89-7.33-8.41-8.75-1.19-4.86-4.63-8.15-9.57-9.16-.03-6.06-4.62-12.35-10.15-13.81-2.06-4.59-6.74-10.59-11.3-13.03-5.19-3.05-14.9-3.77-21.22-1.66-2.4-2.6-6.16-3.76-11.47-3.53-2.73-5.56-5.52-10.03-12.49-12.82l-.3-.12-.31.07c-4.68,1.13-9.49-1.33-14.14-3.7-7.35-3.75-14.94-7.63-22.21,2.05l-.14.18-.04.22c-.53,2.69-2.46,3.59-4.7,4.63-2.06.96-4.38,2.04-5.6,4.69-5.17-.01-8.22.51-10.63,3.11-8.31-2.85-15.31,1.71-18.34,8.06-2.77-1.07-5.65-.88-7.88.55-2.29,1.47-3.62,4.07-3.7,7.18-.71.33-1.5.64-2.33.97-3.03,1.21-6.41,2.55-7.72,5.48-1.97-1.46-5.1-3.26-8.24-1.81-3.6-2.58-8.69-3.02-12.89-1.08-3.77,1.75-6.05,4.99-6.32,8.95-4.28,3.06-7.19,8.14-7.81,13.71-.53,4.77.71,9.3,3.42,12.6-3.77,3.68-3.75,8.72-3.72,13.6,0,.85,0,1.72,0,2.58-7.54,4.35-12.1,11.81-12.25,20.07-.16,8.67,4.47,16.72,12.39,21.6,3.31,10.74,14.3,28.19,26.76,33.67,4.69,2.07,9.15,2.25,13.27.54,2.32,4.46,5.67,8.42,13.22,8.74,4.01,8.36,10.15,7.86,16.09,7.38,4.13-.34,8.03-.65,11.43,1.79,0,1.49.03,2.93.05,4.32.16,10.03.28,17.31-5.99,21.62-15.46,2.61-26.5,9.06-25.7,15.04.74,5.53,10.69,7.77,27.35,6.16,0,.01,0,.02,0,.03.05.88-1.6,2.75-3.07,4.39-2.65,2.97-5.95,6.67-5.69,10.7.14,2.1,1.24,4.05,3.27,5.81l.22.15c5.42,2.57,13.38-1.38,20.4-4.86,3.65-1.81,7.1-3.51,9.7-4.05,6.15-1.62,12.47,1.8,18.58,5.12,4.65,2.52,9.39,5.1,13.87,5.1,2.44,0,4.8-.76,7.02-2.72l.15-.13.09-.18c3.21-6.58-1.46-11.16-5.59-15.2-2.52-2.47-4.92-4.82-5.54-7.42,1.46.17,3.66.63,6.13,1.14,10.39,2.14,19.22,3.63,22.06.16,1.08-1.33,1.14-3.17.16-5.49-2.15-8.24-9.29-10.03-16.2-11.76-4.47-1.12-8.71-2.17-11.57-4.88-3.23-9-5.51-21.33-1.39-26.84,1.71-2.28,4.36-3.27,8.08-3.05l.36.02.29-.21c1.69-1.23,3.91-1.51,6.25-1.8,2.96-.37,6.29-.79,8.88-3.33,2.53,1.88,5.7,2.73,9.22,2.48,5.8-.42,12.21-3.79,16.32-8.59l.11-.13.06-.16c1.13-2.86,3.67-3.58,6.6-4.41,2.21-.63,4.51-1.28,6.42-2.84,4.77-3.14,10.87-12.01,11.5-18.18.4-.32.88-.7,1.41-1.11,2.72-2.11,6.44-5.01,7.53-7.8l.07-.28c.33-3.96,2.86-5.96,5.79-8.26,1.58-1.24,3.21-2.53,4.59-4.21l.09-.14c3.29-5.72,5.45-16.4,3-24.92ZM210.48,192.64c-4.65.32-9.41-1.84-14.19-6.41,9.51,2.27,12.41-.34,15.71-3.32,1.93-1.75,4.12-3.72,8.12-5.01,4.92.86,8.28-.89,11.52-2.57,2.07-1.08,4.21-2.19,6.83-2.68l.19-.04.16-.11c3.51-2.27,4.29-6.17,5.05-9.95.51-2.56.99-4.98,2.27-6.81l.11-.2c1.41-3.51-.46-6.19-1.7-7.97-.51-.73-1.15-1.65-1.04-1.99.02-.07.17-.37,1.12-.77,2.64,3.81,6.52,6.01,10.7,6.12-1.91,3.93-5.16,7.49-9.3,10.15l-.42.27-.04.49c-.81,10.02-9.68,18.97-18.99,19.14h-.52s-.29.44-.29.44c-4.74,7.08-9.88,10.85-15.3,11.22ZM174.22,257.81c3.19,4.28,6.48,8.7,8.84,13.89-4.72-.03-9.3-2.3-14.12-4.7-4.59-2.28-9.32-4.64-14.46-5.12,5.12-12.98,4.39-28.27,3.68-43.06-.41-8.48-.83-17.25-.1-25.27,1.56-15.14-1.47-28.37-4.69-42.37-.25-1.07-.49-2.15-.74-3.24,9.71-4.11,9.14-9.55,8.59-14.81-.27-2.55-.54-5.18.32-7.8.41.84.63,2.05.84,3.24.2,1.12.41,2.27.8,3.22l.07.14c3.75,6.3,1.13,8.19.28,8.81l-.17.16c-4.45,5.18-5.19,12.36-3.61,16.77.92,2.57,2.59,4.2,4.71,4.58,2.12.38,5.62-.37,10.37-5.94,8.03-.54,11.96-1.5,14.97-3.36-1.26,1.76-2.12,3.76-2.19,6.22v.26s.12.23.12.23c.43.81.92,1.53,1.48,2.15-6.04-1.97-12.24-3.73-17.93.48-10.14,8.7-8.82,24.46-7.54,39.71.7,8.39,1.36,16.31.18,22.87-3.04,14.99,3.45,23.7,10.32,32.92ZM65.67,176.15c-.94-3.57-3.38-6.39-5.74-9.13-3.18-3.69-6.18-7.17-5.56-12.22l.08-.66-.58-.33c-7.06-4.02-11.95-11.47-12.18-18.54-.11-3.56.88-8.51,6.02-12.49,1.18,4.92,5.66,6.56,9.65,8.02,4.85,1.78,7.77,3.1,6.88,7.82-1.13,7.44,2.39,11.27,5.79,14.98,1.34,1.46,2.73,2.98,3.8,4.7l.13.16c.78.81,1.27,2.39,1.8,4.06,1.04,3.31,2.33,7.42,6.7,8.45,1.84.63,4.31.34,6.71.07,2.61-.3,5.31-.62,6.36.38.43.41.61,1.1.54,2.1v.05s0,.05,0,.05c.1,2.78,1.25,4.61,2.26,6.23.8,1.27,1.49,2.38,1.66,3.83-2.34,1.97-4.42,1.36-7.25.53-.98-.29-1.99-.58-3.1-.8l-.53-.1-.38.39c-1.95,2.01-4.85,2.94-7.99,2.55-2.99-.38-5.59-1.88-6.84-3.95-1.1-5.04-4.38-5.64-8.23-6.13ZM176,39.92c1.62-.42,3.29-.86,4.86-.45,4.5,2.93,7.63,7.32,8.4,11.79l.11.66.66.15c4.39.97,7.48,3.29,9.18,6.9,2.5,5.29,1.36,12.13-.89,16.56l-.36.71.62.51c7.29,6.04,4.42,10.49,1.1,15.64-1.73,2.69-3.52,5.46-3.83,8.54-3.19.56-4.56,2.88-5.89,5.13-1.12,1.89-2.17,3.67-4.36,4.74-2.88,1.67-5.61.66-8.51-.4-1.69-.62-3.44-1.27-5.16-1.27h-.49s-.3.39-.3.39c-2.89,3.76-10.36,7.76-17.27,4.5-4.17-3.64-6.81-3.11-10.44-2.38-1.16.23-2.47.5-4,.66-3.25-1.03-5.98-3.12-7.32-5.63l-.3-.56-.64.04c-2.86.17-5.28-.73-6.48-2.4-1.1-1.54-1.16-3.67-.15-6.17l.39-.96-.97-.35c-8.66-3.12-11.59-8.03-9.23-15.44l.04-.19c.15-1.32-.08-2.5-.27-3.45-.38-1.95-.47-2.41,1.9-2.92l.89-.19-.11-.91c-.25-2-.88-3.87-1.49-5.68-1.08-3.21-2.1-6.25-.82-9.57,2.09-3.46,4.95-6.97,10.33-6.97.04,0,.09,0,.13,0h.61s.28-.54.28-.54c1.63-3.12,4.81-3.97,10.28-2.77l.33.07.31-.14c1.62-.75,2.17-1.99,2.62-2.99.66-1.48,1.17-2.65,5.44-2.61h.62s.28-.55.28-.55c1.88-3.75,4.03-7.6,7.75-10.03,4.03.39,5.92,1.68,7.74,2.93,1.76,1.2,3.57,2.44,6.97,2.7,1.5,4.48,4.78,3.62,7.44,2.92ZM176.16,176.01c1.17.59,2.28,1.41,3.44,2.27.6.44,1.2.89,1.82,1.3-2.23-.45-4.34-1.24-5.13-2.31-.22-.3-.38-.68-.13-1.26ZM123.09,179.53c.5-.34,1-.69,1.49-1.04,1.33-.95,2.6-1.86,3.97-2.45.42.71.21,1.07.14,1.2-.62,1.09-3.02,1.85-5.59,2.28ZM122.48,134.65c.78.75,2.23,2.15,2.15,2.58,0,0-.08.17-.56.39-6.26,1.24-15.65-2.55-18.68-8.86,1.71-.31,3.79-.31,5.81-.3,2.61.01,5.25.02,7.44-.61-.02.13-.04.27-.04.4-.15,2.5,1.99,4.57,3.89,6.4ZM86.56,166.5c-1.41-.04-2.54-.67-3.33-1.33-1.38-1.14-2.36-2.88-2.71-4.62,1.86,2.27,3.9,4.46,6.04,5.95ZM141,154.29c-.06.04-1.64.88-11.48-5.1l-.3-.18-.35.05c-8.06,1.11-10.65-.81-15.82-4.64-.74-.55-1.52-1.12-2.37-1.73l-.23-.16-.28-.02c-2.07-.17-3.44.33-4.33,1.05l-.41-.43.26.55c-.85.75-1.25,1.71-1.43,2.44-.85,3.38,1.14,8.43,4.03,11.19-10.76,1.06-14.96-3.59-20.2-9.36-1.51-1.67-3.08-3.39-4.9-5.09l-.13-.12-.17-.07c-.93-.38-1.75-.54-2.46-.54-1.95,0-3.09,1.18-3.67,2.05-1.25,1.89-1.52,4.78-1.11,7.27-.42-1.58-1.06-3.56-3.72-3.98-2.7-3.27-3.83-5.73-3.36-7.33.6-2.03,3.97-3.07,7.54-4.18,4.73-1.46,10.51-3.25,12.22-8.32,1.88,1.09,4.23,1.28,6.52,1.47,4.35.36,6.82.74,7.01,4.6v.27s.16.22.16.22c2.89,4.51,10.04,8.23,17,8.84,4.4.38,8.07-.56,10.47-2.68,5.86,4.35,12.06,12.56,11.51,13.94ZM85.21,155.09c8.29,8.08,18.78,7.95,28.27,7.83,7.83-.1,15.23-.19,19.96,4.58,2.21,2.23,3.8,5.49,4.78,9.83-1.09-3.93-2.62-6.82-4.6-8.74-2.7-2.61-6-3.42-9.63-3.42-2.88,0-5.97.51-9.13,1.03-10.6,1.74-21.52,3.53-29.63-11.12ZM131.04,116.41c.5-1.14.53-1.18,1.18-1.2,1.15-.04,3.63.49,8.09,1.45l1.58.34c.04,6.19,1.25,11.15,3.12,16.25-1.32-.8-2.67-1.69-4.06-2.62-4.67-3.1-9.87-6.56-15.41-7.01,3.8-3.33,4.84-5.7,5.5-7.22ZM194.84,179.07c-.78-1.04-1.66-2.16-2.82-2.87l-.32-.2-.38.07c-2.62.48-10.34-2.73-11.4-5.14-.09-.21-.14-.39.04-.63,2.8.44,5.33,1.42,7.77,2.36,4.31,1.67,8.76,3.39,14.35,1.83.26.22.54.46.84.72.19.17.39.34.6.52v1.75l.32-1.48c1.45,1.22,3.19,2.52,5.13,3.01-1.75,2.39-4.49,3-8.19,1.82l-.48-.16-.41.3c-2.25,1.64-3.07.74-4.85-1.65-.02-.03-.04-.05-.06-.08l.66-.24-.78.08ZM211.17,143.54c-1.93,1.75-3.48,3.16-6.54,2.51,1.25-2.33,2.37-5.11,2.52-7.74,2.34-.08,3.95,1.19,5.82,2.65.23.18.47.36.71.55-.93.6-1.74,1.32-2.51,2.03ZM239.12,158c1.04,7.46-3,9.17-8.12,11.33-2.51,1.06-5.1,2.16-7.21,4.04-2.29-.38-4.56-.08-6.76.21-3.49.46-6.56.86-9.31-1.29,3.67-2.46,9.37-8.13,9.85-13.72.23-2.7-.83-5.05-3.08-6.81l-.2-.16-.25-.04c-4.36-.73-7.09,1.76-9.51,3.95-2.49,2.26-4.64,4.22-8.38,3.35-1.8-1.26-1.85-1.79-1.85-1.79.24-.56,2.87-1.17,4.44-1.54,3.35-.78,7.1-1.65,7.67-4.19,3.7-.88,6.26-1.72,8.73-2.53,2.33-.76,4.53-1.49,7.57-2.21,2.53,1.75,6.3,2.01,9.95,2.27,3.51.25,7.14.5,8.07,2.22.65,1.2.15,3.32-1.5,6.3l-.16.29.05.33ZM173.76,115.07c4.37,2.29,12.33,1.38,15.98-.49l.2-.1.14-.18c2.26-2.97,3.17-3.08,3.17-3.12.21.22.46,1.55-.16,4.09-.81,3.32-2.75,7.03-4.87,7.69l-.27.13c-.26.18-.65.33-1.06.48-.89.34-2,.76-2.48,1.88l-.1.23.02.25c.13,1.42-.04,2.4-.48,2.91-.54.62-1.68.67-2.89.72-2.01.09-5.03.22-5.56,4.03-2.75,4.1-3.69,3.96-3.73,3.95-.74-.15-1.43-3.71-1.84-5.84-.84-4.34-1.88-9.71-5.1-12.02,3.53-.66,6.75-2.15,9.04-4.6ZM180.5,135.27c4.83.81,6.56-2.12,8.09-4.72.6-1.03,1.22-2.08,2.04-2.97,1.62,3.16,3.85,6.88,7.93,8.78-.3.33-.6.67-.91,1.01-5.77,6.42-12.32,13.69-21.47,11.7l-.27-.06-.26.09c-3.27,1.09-7.7,3.82-10.14,6.78-.51-.66-.79-1.52-.83-2.59-.11-2.87,1.51-6.11,3.15-7.62,5.14-1.02,10.12-5.13,12.66-10.41ZM147.84,116.95c2.62,1.5,5.78,2.5,9.04,2.91-3.35,2.53-2.57,7.14-1.87,11.27.43,2.57.88,5.23.3,7.14-2.08-.7-4.04-2.89-5.59-6.27-2.33-5.1-3.1-11.72-1.88-15.05ZM208.28,160.82c-2.67,2.8-5.54,3.67-8.62,3.56,2.99-.67,6.01-2.07,8.62-3.56ZM106.43,183.97l-.82-.39c-1.01-3.15-2.21-5.68-3.48-8.36-.16-.35-.33-.69-.5-1.05,1.94-.52,4.56-.58,7.31-.65,5.14-.13,10.45-.26,13.42-3.25,1.86.13,2.45.45,2.6.57-.51,1.73-10.62,6.38-13.33,6.09l-.6-.06-.33.5c-2.38,3.57-1.05,5.59-.04,6.49,3.47,3.07,13.82,2.21,18.03.42.45,2.48.14,4.18-.92,5.05-3.79,3.1-16.54-3.04-21.35-5.36ZM110.88,70.99c-1.26.93-2.2,2.38-2.44,3.84-.18,1.14.07,2.19.72,3.02-.05.55-.1,1.12-.16,1.69-.49,5.06-1.04,10.8,2.04,14.7l.1.13.14.09c7,4.49,7.54,7.38,7.99,9.7.56,2.96,1.39,4.94,7.82,6.97-.29,3.4-2.61,6.86-6.33,9.41-4.98,3.41-11.11,4.34-16.01,2.43l-.23-.09-.25.03c-1.43.17-2.79.44-4.1.69-4.8.94-8.28,1.62-11.37-2.7l-.64-.89-.83.72c-1.27,1.11-2.44,2.41-3.67,3.79-4.32,4.84-8.4,9.42-16.98,5.92-1.89-3.04-4.99-3.99-7.74-4.82-2.19-.67-4.26-1.3-5.5-2.88-.07-.43-.14-.81-.2-1.14-.36-2.02-.38-2.14.89-3.71l.27-.33-.05-.42c-.77-5.98-1.14-12.64,4.34-15.89l.97-.58-.69-.89c-9-11.62-3.03-19.08,5.23-29.4l1.29-1.62c1.92-.96,5.47.99,7.2,1.94.53.29.92.51,1.22.63l.38.15.38-.16c3.31-1.38,4.85.38,7.35,4.43l.51.83.84-.49c2.05-1.2,3.64-3.1,5.17-4.95,2.58-3.1,5.05-6.03,9.54-5.91l.93.02.09-.93c.5-5.37,1.18-6.25,1.45-6.38.31-.15,1.48.65,2.25,1.17,1.18.79,2.64,1.77,4.42,2.39l1,.35.29-1.02c.94-3.32,2.02-6.47,4.26-8.75-3.16,4.84-5.52,12.02-1.93,18.94ZM101.98,188.21c2.69.62,5.44,1.9,8.35,3.25,5.93,2.75,12.05,5.59,18.41,3.28.09,2.14.18,5.24-.06,6.35-.2-.12-.46-.29-.66-.42-2-1.32-6.15-4.06-12.02,1.58-4.67,1.71-10.14-6.7-10.75-7.68l-.25-.41-.48-.05c-7.53-.87-9.13-2.6-9.15-3.02-.02-.39,1.17-1.73,6.61-2.87ZM133.45,229.89c-.16,1.79-.35,3.39-.58,4.74-.88,1.2-2.08,2.21-3.51,3.09,1.79-2.45,3.12-5.08,4.09-7.83ZM136.77,238.59l.07-.25c1.25-9.53,2.16-18,2.71-25.49.82,12.72,1.47,25.77-6.48,35.41-.29.34-.63.67-.97,1.01-.66.65-1.38,1.37-1.94,2.22-3.08-1.68-6.46-2.13-9.92-2.13-2.02,0-4.06.15-6.08.31-2.58.19-5.22.39-7.76.26,2.56-.86,6.06-1.66,9.69-2.49,9.25-2.12,18.81-4.31,20.68-8.83ZM126.31,263.92c1-.87,2.04-1.76,2.94-2.93,17.65-14.67,16.39-36.56,15.18-57.73-.48-8.33-.97-16.95-.25-24.86v-.11s0-.11,0-.11c-1.82-13.76-10.52-16.75-18.93-19.64-3.87-1.33-7.6-2.61-10.62-4.89,2.91,1.3,5.65,1.46,8.64,1.63,2.38.13,4.84.27,7.74,1,10.34,7.01,13.56,6.77,15.09,5.96.71-.37,1.56-1.2,1.58-3.01.05-6.16-9.93-20.54-17.78-27.95,23.79,10.35,23.13,39.55,22.55,65.53-.17,7.49-.33,14.57.07,20.92-.1,5.36.04,10.38.17,14.81.65,22.83.98,34.43-30.43,38,.31-3.37,2.07-4.89,4.07-6.63ZM175.42,246.27l-.3.34c-.57.64-1.11.96-1.44.93-.88-.1-1.94-2.09-2.71-3.55-.47-.88-.91-1.72-1.4-2.42.43-5.19-.15-12.85-.82-21.68-1.66-21.87-3.93-51.79,10.26-55.45.35,0,.7,0,1.05.05-1.84.35-3.48,1.23-4.92,2.61-12.18,11.7-5.17,58.1-1.35,68.92l.13.25c2.84,3.92,8.08,5.04,13.14,6.11,5.91,1.26,11.51,2.45,13.22,7.8-3.67.07-8.31-.99-12.81-2.01-4.25-.97-8.27-1.88-11.57-1.92h-.46ZM175.64,184.12c3.48,1.28,9.32,2.38,13.75,1.71.66,2.19,2.18,3.99,3.43,5.46.63.75,1.69,2,1.63,2.36-.01.03-.35.69-4.39,1.11-4.34.32-7.59,1.31-9.96,2.04-1.88.58-3.37,1.03-3.88.63-1.06-.83-.94-5.99-.58-13.32ZM240.29,141.1c-2.07,1.65-4.42,3.53-9.89,2.28l-.15-.02c-2.53-.18-4.33-1.43-6.22-2.76-2.1-1.47-4.28-2.98-7.47-3.04-2.53-3.93-5.62-4.49-10.02-4.06-11.78-3.25-10.97-6.33-9.22-13.05.72-2.75,1.54-5.87,1.64-9.64v-.34s-.19-.27-.19-.27c-1.89-2.63-1.18-3.4.53-5.25.6-.65,1.28-1.38,1.9-2.29l.25-.36-.1-.43c-.55-2.37.55-3.53,2.54-5.38.75-.69,1.52-1.41,2.19-2.27l.07-.1c3.77-6.34,1.77-14.55-2.09-19.37,3.16-6.77,2.96-13.73-.4-19.1,2.02.34,4-.08,6.16-.54,2.09-.45,4.44-.97,7.36-.92,4.75.34,18.88,12.61,23.5,21.49,1.22,2.35,1.57,4.19.98,5.17l-.54.89.91.5c1.29.71,2.54,1.18,3.75,1.62,3.21,1.2,5.53,2.06,6.35,6.74l.09.5.45.22c7.84,3.87,10.79,11.49,7.71,19.88l-.32.86.83.39c7.53,3.51,8.98,13.06,7.15,20.45-1.5,6.06-5.9,12.96-13.33,12.86-8.35-8.76-10.94-7.48-14.45-4.68Z"/>
</svg>