<?xml version="1.0" encoding="UTF-8"?>
<svg id="Layer_1" data-name="Layer 1" xmlns="http://www.w3.org/2000/svg" version="1.1" viewBox="0 0 300 300">
  <defs>
    <style>
      .cls-1 {
        fill: #000;
        fill-rule: evenodd;
        stroke-width: 0px;
      }
    </style>
  </defs>
  <path class="cls-1" d="M18.31,98.34c-14.35,5.91,6.53,4.87,10.68,1.23,13.81-.9,69.98-56.76,66.91-25.71,3.41,10.87,3.52,22.8-4.01,32.22-1.63,4.29,7.36-1.87,10.04-.82,1.03-.11,2.03-.34,1.28-1.58-9.76-17.26,25.99,7.82,28.3,1.24-7.03-4.17-36.58-9.23-26.79-19.38,6.55.66,27.08,12.78,32.5,9.62-11.77-6.86-30.3-7.26-38.1-19.84-.98-2.89,1.03-4.73,3.88-3.48,18.25,10.29,37.84,19.13,58.63,22.58,7.55,2.17,15.56,8.31,23.78,6.76,3.72-4.27-10.6-4.4-10.18-7.52,8.42-8.38,22.14-13.67,31.84-21.57,14.53-12.21,16.17,12.49,10.28,21.55-2.08,4.08,8-1.75,13.85,2.69,10.36,1.83-5.29-3.9-6.1-6.91-1.02-10.36,14.92,2.16,20.06,1.55,11.94.16-31.18-11.41-18.8-14.76,15.14,5.24,31.28,8.08,45.65,15.21,14.1,2.71,3.65-4.48-2.72-5.76-14.3-7.01-25.83-19.37-42.45-22.81-8.67-2.16-40.77-10.31-16.43-16.32,16.97-2.97,48.17-45.27,48.08-7.63,1.81,4.49-12.97,14.64-5.8,13.18,2.14-.89,6.73-.79,7.48-2,1.18-8.52,12.2,1.31,17.34,1.08,9.22.92-23.35-8.81-12.13-10.66,5.62.88,13.11,6.86,18.64,5.62-5.19-3.86-28.33-8.12-23.13-16.8,8.14,2.73,27.91,14.89,35.19,12.92-44.95-13.65-43.77-32.75-1.06-3.91,4.36,2.85,6.84,2,2.11-1.93-56.28-47.35-63.39,16.34-107.79,9.16-41.12-30.2-48.59.87-84.31,12.31-34.11-1.62-54.62,33.71-86.7,40.46ZM222.53,67.43c6.97-1.57,21.5,6.48,26.93,11.48-.91,4.55-35.11-8.1-26.93-11.48ZM113.24,59.31c5.93-6.05,15.1-8.94,21.85-14.05,4.41-2.46,19.24-15.09,19.91-4.02,3.24,9.32,3.33,18.42-6.19,24.11-.9.96-1.07,1.63.02,1.59,2.85-1.13,8.5-1.36,10.52-2.5-.53-9.47,13.22,1.75,18.51,1.15,6.45-.26-13.22-5.13-14.77-7.96-6.62-9.39,24.72,8.12,20.54,2.08-4.51-.03-35.1-13.95-23.21-16.18,11.4,5.3,24.17,12.83,36.63,13.18-3.43-2.36-50.43-16.17-31.83-19.26,17.25,3.96,30.39,17.08,46.3,24.1,5.93,4.96-29.88,21.92-35.52,25.32-13.07,5.78-18.62-1.22-29.02-7.62-9.79-5.88-19.48-11.38-30.18-16-1.59-.77-4.27-1.98-3.57-3.95ZM138.46,85.28c-5.38-2.22-42.03-15.41-35.25-21.67,8.42-6.1,81.84,38.35,35.25,21.67ZM33.4,32.79c5.86,3.1-1.84,22.32,3.17,19.36,3.44-4.61,7.95-1.58,12.55-.28,2.09-.87-6.96-3.51-7.83-5.25-6.63-8.26,13.84,2.84,10.76-.54-24.13-11.2-11.83-10.69,4.41-1.77,37.07,10.94,2.57,1.47,35.69-9,4.99,2.35-.86,14.62,7.67,11.83-2.39-5.94,2.71-3.28,5.71-3.12-.59-1.63-4.14-2.25-5.58-3.69-.81-1.07-.64-1.54.14-1.61-3.09-.96-5.95-2.32-5.76-4.36,2.09-1.14,14.57,4.42,11.86,5.87,6.95,2.39,16.42,6.4,13.97,3-36.27-30.45-34.2,9.46-58.84-3.43-13.7-11.55-31.22-14.95-44.76-1.24-5.06,3.98-11.76,6.43-16.5,10.59,11.67,1.48,21.51-16.89,33.34-16.37ZM39.14,32.56c3.56-1.71,29.76,11.12,22.37,12.11.11.61-27.83-10.01-22.37-12.11ZM100.09,38.73c2.26.7,4.64,1.18,6.02,1.55.03-.01.05-.03.08-.05-2.7-.93-5.01-1.6-6.1-1.51ZM111.71,46.4c1.08-1.09-2.58-1.51-3.1-1.54-1.61,1.04,2.22,2.02,3.1,1.54ZM64.87,48.49c-1.24-1.87-8.03-1-2.99.37.77.07,2.85.98,2.99-.37ZM104.07,48.91c.65-.62-.31-1.3-.9-1.22-.59.51.12,1.66.9,1.22ZM290.74,48.41c-1.49,2.26,5.49,2.76,6.78,2.15,2.41-1.47-6.28-2.73-6.78-2.15ZM57.91,52.37c.08-.6-.73-.88-1.15-.94-1.77.58.46,1.87,1.15.94ZM45.97,53.4c1.84-.72-1.45-1.92-2.18-1.64-.97.98,1.45,1.72,2.18,1.64ZM284.97,52.61c-1.92.99.99,2.7,2.07,1.76,1.09-1.11-1.22-2.03-2.07-1.76ZM265.96,52.93c-2.49.89,1.91,2.37,2.85,2.78,2.99-.85-1.4-3.22-2.85-2.78ZM198.34,64.04c2.41-1.47-6.28-2.73-6.78-2.15-1.49,2.26,5.49,2.76,6.78,2.15ZM187.87,67.85c1.09-1.11-1.22-2.03-2.08-1.76-1.92.99.99,2.7,2.08,1.76ZM169.63,69.19c2.99-.85-1.4-3.22-2.85-2.78-2.49.89,1.91,2.37,2.85,2.78ZM253.12,90.51c-4.09,4.41,14.46,4.1,4.54.46-1.5-.18-3.1-.88-4.54-.46ZM148.44,95.72c-2.52,3.9,6.63,3.31,8.9,4.14,4.41-2.41-6.91-4.65-8.9-4.14ZM242.04,133.86c15.89-5.99,29.45-16.19,43.07-26.08,2.43-2.24,21.72-11.44,11.75-11.81-24.39,10.28-48.3,43.82-77,34.16-74.68-52.3-89.3,11.31-159.28,34.36,34.85,6.76,69.31-45.13,102.31-48.79,6.29,3.55-4.98,7.44,6.34,26.08,6.87,15.34-35.58,37.66-10.53,28.74,5.14-5.03,9.26-2.2,15.26-2.18-20.57-25.81,32,7.91,36.19.96-3.42-2.94-52.46-17.26-31.86-21.7,11.13,4.33,26.44,13.76,38.26,12.82.85-1.69-4.08-2.91-5.43-3.38-12.91-4.18-27.26-8.09-37.41-17.52-13.83-17.37-2.69-13.8,9.23-5.46,5.61,3.37,56.63,26.83,53.24,17.99-14.95-6.67-63.38-17.44-64.34-34.3,21.27-11.21,96.98,64.74,103.95,42.88-14.91-4.43-29.34-10.4-40.79-20.62-3.45-4.12,4.61-4.86,7.03-6.14ZM241.15,96.64c-1.29,1.53.53,3.27,2.17,2.46,1.31-1.25-.83-3.15-2.17-2.46ZM140.05,106.92c.72.66,3.75.93,3.46-.76-.51-2.24-4.55-1.98-3.46.76ZM113.08,105.4c-1.87,1.88,3.12,3.63,4.95,3.47,3.22-1.85-3.37-4.36-4.95-3.47ZM261.46,232.21c-51.9-16.09-101.14-85.3-156.32-44.25-24.79-2.32-44.17-18.65-64.44-31.48-10.08-6.06-30.88-20.51-38.55-19.77-4.38,4.93,6.39,8.56,10.1,10.66,28.27,13.63,51.51,38.19,82.71,45.6,11.84,1.7-1.02,10.12-5.46,12.89-20.98,13.25-44.85,25.09-69.7,27.76-6.07,1.33-19.72-9.84-19.38-1.28.21,5.35,84,53.25,131.32,46.11,30.96-4.73,75.14-37.38,109-36.13,13.34,3.27-10.99-7.14-20.63-5.98-.98,0-2.46-.22-4.35-.64,4,2.13,5.03,4.41.36,6.87-118.17,62.05-137.52,20.66-175.77,5.19-43.12-18.74,24.95-5.55,82.15-65.21,7.66-5.17,23.29-8.47,13.02,5.85-4.07,8.07,3.72,14.33,6.43,21.26,4.47,16.18-11.35,28.7-23.68,36.07-1.98,1.71-.23,1.73,1.3,1.28,11.23-1.93,12.71-11.25,24.95-4.36,10.65,1.1-12.16-5.15-4.77-10.21,16.05,0,32.34,13.84,49.38,15.54,5.09.31-.14-2.64-2.26-2.86-11.17-4.71-39.87-8.63-42.31-20.99,1.1-2.37,4.43-1.86,6.45-.81,14.9,7.26,33.12,16.39,49.67,16.94-16.79-7.36-36.57-10.63-51.06-21.02-13.49-19.31,15.7-.04,21.94,2.45,1.61,2.23,12.38,4.68,23.28,7.4-28.31-10.49-67.35-29.3-54.18-35.76,24.57,15.63,51.82,27.1,80.11,34.19,19.77,2.17-89.99-27.43-79.27-42.87,2.49-1.87,6.6.75,8.91,2.4,20.35,13.48,43.17,22.66,66.64,29.27,16.75,4.66,29.45,19.08,47.48,20.53,12.84.34,2.55-4.12-3.04-4.62ZM145.52,179.98c22.78,1.3,51.04,17.74,67.93,32.25-15.63-1.07-58.88-20.28-67.93-32.25ZM213.94,213v-.3c.12.28.18.06,0,.3ZM299.84,136.97c-1.77.52-7.47,3.23-5.96,5.58,2.51.77,7.35-2.58,5.96-5.58ZM47.78,176.88c-15.69-4.55-30.3-11.28-45.15-17.53-12.42,3.58,52.97,27.16,57.76,23.39,1.67-3.53-10.22-4.71-12.61-5.85ZM239.52,162.77c-3.48-1.13-7.44-2.04-11.09-1.96-6.12,3.6,16.56,7.21,11.09,1.96ZM221.8,170.32c-.46-1.57-2.66-2.28-4.04-1.73-3.72,2.39,4.23,5.13,4.04,1.73ZM191,171.94c-.86-2.2-4.58-2.7-6.72-2.79-4.53,1.66,7.58,7.66,6.72,2.79ZM.31,176.83c-.35,8.33,25.96,12.61,33.3,14.42,11.46-2.09-31.23-14.39-33.3-14.42ZM194.82,229.05c8.52,3.16,16.06,5.56,20.92,6.64-4.49-2.39-12.74-4.6-20.92-6.64ZM26.88,201.19c-.61-5.9-16.25-6.37-21.21-9.64-18.7-2.1,17.19,13.7,21.21,9.64ZM61.02,196c3.78-5.07-11.37-4.68-14.3-5.12-4.17,4.33,11.68,6.57,14.3,5.12ZM38.55,201.79c-.92-1.47-3.17-2.09-4.71-1.52-5.4,2.97,6.84,6.63,4.71,1.52ZM.49,202.69c-.37,1.13-.17,2.83,0,4.08.58-1.09.63-3.1,0-4.08ZM232.88,229.78c.95.77,4.97,2.11,4.4-.47-.47-1.58-5.39-1.83-4.4.47ZM158.71,246.5c-1.2,1.28,2.29,2.58,3.48,3.08,10.33,3.16,1.25-4.83-3.48-3.08Z"/>
</svg>