<?xml version="1.0" encoding="UTF-8"?>
<svg id="Layer_1" data-name="Layer 1" xmlns="http://www.w3.org/2000/svg" version="1.1" viewBox="0 0 300 300">
  <defs>
    <style>
      .cls-1 {
        fill: #221e1f;
        fill-rule: evenodd;
        stroke-width: 0px;
      }
    </style>
  </defs>
  <path class="cls-1" d="M45.48,116.8c3.02,8.48,4.42,17.37,8.01,25.62,8.13,8.11,21.95,8.49,32.03,13.53,4.35.64,8.78-2.01,13.09-2.82,4.64-1.59,9.74-2.07,14.18-4.16,9.1-3.73,8.94-17.78,19.43-19.2,2.63-1.13,6.9-1.06,8.26-3.95.41-2.36,4.21-4.82,1.79-6.97-7.18-5.81-14.65-11.67-20.15-19.28-7.01-6.47-10.34-15.96-13.69-24.46-2.41-2.5-6.52-3.51-9.78-4.6-6.38,1.39-12.5,4.13-18.82,5.9-11.01,3.93-10.33,1.53-17.64,11.24-6.61,10.01-20.26,16.9-30.31,20.4-1.6,1.63-1.88,6.42-.3,8.42,4.53,3.42,10.99-3,13.91.32ZM118.65,134.19c3.25,1.25-1.32,5.83-2.3,7.74-5.11,6.87-16.82,6.79-24.53,9.63-2.85.44-1.52-1.55-1.07-3.09.66-4.05,2.19-7.74,2.85-11.76,1.97-6.39,6.34,3.37,9.99,2.4,5.11-1.42,9.94-3.52,15.07-4.92ZM94.66,87.76c8.52-4.15,10.26,10.42,7.75,17.94-2.5,1.04-6.35-1.94-8.2-3.72-3.59-1.9-3.53-12.97.45-14.21ZM53.18,110.49c3.12-2.3,6.52-4.34,9.31-7.07,13.3-12.98,5.31-1.73,18.95,15.2,1.91,5.28,12.09,9.27,9.95,15.21-1.06,4.09-1.92,8.51-3.41,12.45.32,6.53-4.81,5.71-9.31,3.85-2.22-.64-3.21-.88-4.07-3.06-1.26-4.22-2-10.1-7.55-10.33-5.77-.02-1.7,12.2-9.69,5.19-4.85-7.36-5.34-17.49-8.86-25.69-.55-3.08,2.22-4.76,4.68-5.75ZM58.3,125.08c3.21.77.97-7.16.26-8.78-3.75-1.64-2.53,3.1-1.99,6.2-.02,1.18.5,2.32,1.73,2.59ZM68.44,126.11c.68-2.74,1.57-9.2-2.1-8.87-1.5.46-.93,3.78-.9,5.11-.21,1.91.59,5.06,2.99,3.76ZM77.25,129.7c1.41-2.5,3.18-9.22-.49-9.93-2.07-.08-2.52,11.38.49,9.93ZM157.41,151.17c13.83-6.27,28.01-10.71,42.87-13.16-.02-2.78-14.95,2.19-17.34,2.84-8.56,1.94-17.78,5.36-26.04,9.53-1.43.8-.53,1.07.5.8ZM166.49,154.46c13.19-4.57,24.37-9.73,37.56-12.32.89-.21,9.13-.99,5.61-2.12-9.06,1.12-17.99,4.14-26.68,6.85-4.67,2.75-12.6,3.64-16.49,7.6ZM187.29,153.36c4.64-1.01,9.19-3.62,13.86-4.66,4.37-1,8.44-2.1,12.78-3.2,1.88-.63,5.75.17,6.39-1.8-14.71,1.63-31.5,6.67-44.05,13.8,3.78.13,7.22-3.6,11.01-4.14ZM186.56,160.75c14.12-5.63,29.64-10.15,44.02-13.83-2.05-1.18-5.13.74-7.39.83-3.37.74-6.77,1.48-10,2.58-8.84,2.74-18.98,5.21-26.64,10.42ZM206.52,159.27c-3.12,1.4-7.25,1.86-9.63,4.47,10.15-2.68,20.43-8.55,31-10.3,2.16-1.23,12.8-1.59,12.55-3.44-8.2.26-16.52,3.46-24.43,5.65-3.17,1.18-6.56,1.93-9.49,3.62ZM152.43,155.08c10.64,2.24,21.06,5.98,30.95,10.65.47.24,1.67,1.16,1.89.48-11.17-7.66-29.56-12.46-43.53-14.23,1.14,2.35,8.07,1.32,10.69,3.1ZM257.21,155.36c10.11,2.81,20.13,6.13,29.65,10.38.41.15,1.5.46,1.68.2-12.9-7.14-28.29-12.12-44.09-13.83.02,1.6,10.62,2.23,12.77,3.25ZM132.7,156.2c2.37.81,4.8.81,7.24,1.44,12,2.43,23.06,6.47,34.11,11.42,1.18.49,1.79.24.54-.56-13.35-6.67-28.61-12.16-43.5-13.13-.42.48,1.18.67,1.61.82ZM239.52,156.85c3.27.8,6.61,1.45,9.89,2.27,9.55,2.45,19.78,6.95,28.66,10.08-5.81-5.37-35.81-14.28-44.11-13.89.32,1.11,4.28,1.6,5.55,1.54ZM122.29,159.27c10.83-.1,67.9,23.62,28.82,6.34-9.71-2.59-18.93-6.3-28.82-7.43-.91.2-.95.84,0,1.1ZM236.63,161.72c10.04,2.4,20.37,6.18,29.7,10.27,6,.45-8.67-4.5-9.93-5.48-9.88-3.22-20.48-6.59-30.64-8.27-5.6,1.06,9.77,2.86,10.87,3.48ZM111.06,161.63c13.44,4.26,29.39,6.62,41.93,13.8,7.84-.67-36.66-15.37-41.93-13.8ZM213.93,161.59c1.79,2.04,9.3,1.94,12.35,3.2,10.41,2.76,20.49,6.22,30.18,10.73,5.35-1.41-36.56-15.3-42.53-13.92ZM101.36,165.21c4.86,1.48,10.09,2.46,15.12,3.48,6.36,1.97,12.69,4.15,18.96,6.4,1.75.56,8.43,4.63,9.51,3.63-1.12-2.45-5.18-2.24-7.21-3.84-8.31-3.37-16.81-6.16-25.48-8.41-3.47-.09-8.46-3.08-10.89-1.27ZM216.17,167.9c10.6,2.64,21.45,7.13,31.66,11.03-1.24-2.22-5.25-3.13-7.58-4.06-11.56-4.48-22.6-9.08-35.92-10.01.39,1.64,9.67,2.26,11.84,3.05ZM156.22,182.35c2.34.47,5.19-1.9,7.51-2.74,5.79-1.91,11.73-4.46,17.45-5.96,5.35-1.69,10.88-2.56,16.29-3.99.72-.24,3.06.26,2.84-.84-15.62,1.31-30.71,6.36-44.1,13.53ZM56.9,184.22c13.72-6.1,26.53-10.37,41.85-12.69,2.62-5.11-47.63,11.55-41.85,12.69ZM166.64,185.43c13.81-4.5,27.94-10.81,43.32-12.86,1.43-4.35-41.77,9.93-43.32,12.86ZM290.13,175.92c2.42-1.25,10.06-.96,10.62-3.13-14.63,2.4-29.74,6.42-40.8,13.54,10.03-3.51,19.78-8.04,30.18-10.42ZM91.09,178.8c5.38-2.77,13.37-2.34,18.29-5.17-14.42.84-29.57,7.35-43.17,13.14-4.01,3.97,21.32-8.74,24.88-7.97ZM207.91,178.38c2.58-1.56,12.11-1.3,12.54-3.37-13.31,1.15-34.35,7.48-43.35,13.69,10.5-3.35,20.28-8.45,30.81-10.32ZM100.4,180.62c-7.87,2.87-16.51,5.34-24.62,9.53-1.25.73-.14.78.71.6,13.61-6.06,27.46-10.49,42.56-12.91-2.14-3.25-13.92,2.84-18.65,2.78ZM186.64,192.09c13.36-4.41,28.03-11.21,42.75-13,5.69-3.98-20.7,3.81-22.02,4.03-6.74,2.93-14.96,4.83-20.73,8.97ZM270.86,189.41c8.33-2.69,15.14-6.85,23.65-8.61,1.35-1.2,6.26-1.14,6.28-2.63-8.98,1.17-17.01,5.01-25.21,8.24-.69.29-7.6,2.89-4.71,3ZM92.57,191.38c5.98-1.85,10.89-4.24,17.33-6.21,2.21-.55,4.33-.64,6.38-1.77,1.72-.76,15.59-2.15,11.79-3.44-10.23,1.33-20.05,4.67-29.8,8.05-4.01,2.09-9.74,3.3-12.84,6.16,1.57.76,5.6-2.19,7.13-2.78ZM196.87,195.33c14.16-5.76,28.46-10.92,43.47-13.01-1.58-3.84-41.55,9.44-43.47,13.01ZM138.97,184.27c1.05-4.44-45.64,10.98-42.83,13.02,13.8-5.69,27.98-10.85,42.83-13.02ZM300.75,184.09c-6.91,1.69-13.85,4.73-20.24,7.94-2.42,2.05,3.39-.21,3.97-.82,4.46-1.55,8.81-3.57,13.19-5.2,1.09-.32,3.56-.52,3.08-1.91ZM54.23,188.69c9.69,3.63,19.21,5.77,28.55,10.77,1.14.53,1.44-.39.53-1.05-13.96-6.01-27.24-11.76-42.73-13.21,2.14,2.58,9.87,2.05,13.65,3.5ZM143.4,185.35c.46,1.62,3.58,1.15,4.99,1.46,3.76,1.03,7.55,1.87,11.34,2.83,9.36,2.55,17.97,6.26,27.11,9.94-1.02-3.4-7.61-3.34-10.45-5.55-10.83-3.78-21.09-7.94-32.98-8.68ZM288.43,200.04c-13.99-5.49-28.47-12-43.08-12.73,7.62,2.82,19.75,4.62,28.64,7.88,2.88.33,14.69,8.17,14.43,4.84ZM35.62,190.11c2.8.81,5.69,1.27,8.5,2.04,9.82,2.31,20.71,7.02,29.86,10.67-10.13-7.4-30.54-12.86-43.98-14.34.24,1.61,4.04,1.23,5.62,1.62ZM132.87,188.61c-.44.57,1.15.68,1.56.84,1.94.96,3.97.4,5.95,1.25,12.52,1.97,25.19,8.03,36.65,11.9-6.11-4.81-14.79-6.43-21.98-9.41-7.29-1.34-14.78-5.13-22.19-4.58ZM247.4,193.63c10.57,2.18,21.1,7.16,31.14,10.67-11.38-7.29-29.6-12.63-43.85-13.9.4,1.71,10.2,2.08,12.71,3.23ZM290.3,195.56c2.56,1.15,7.15-3.22,10.42-3.89.53-1.91-9.99,2.96-10.42,3.89ZM28.67,194.04c2.89.72,5.67,1.58,8.65,2.13,8.64,2.8,17.28,5.65,25.48,9.63,3.04-2.93-36.45-14.81-42.51-14.05,1.12,1.69,6.27,2,8.38,2.29ZM166.98,205.49c-1.87-2.42-6.01-2.73-8.53-4.22-3.94-1.58-7.9-3.08-12.04-4.19-7.44-2.23-15.56-5.2-23.2-5.18.17,1.42,2.82,1.28,4.1,1.4,5.67,1.13,11.3,2.59,16.89,4.13,4.99,1.57,9.96,3.5,14.9,5.08,2.33.74,5.58,3.5,7.89,2.97ZM258.96,202.69c-10.78-4-22.28-8.66-33.79-9.13-.65,1.45,10.52,2.3,11.98,3.13,10.49,2.86,20.65,6.31,30.46,10.98,4.37.04-7.64-4.69-8.64-4.98ZM53.3,208.24c-4.62-2.69-10.54-4.39-15.38-6.66-6.19-2.27-13.36-3.79-19.51-5.64-1.24-.72-12.59-1.85-6.91-.18,14.54,2.68,28.69,7.85,42.25,13.41.26-.26-.14-.72-.45-.92ZM112.94,195.63c15.08,2.59,29.69,7.18,43.45,13.71-2.26-4.53-37.08-16.02-43.45-13.71ZM240.11,202.43c-8.37-2.18-16.4-5.43-24.92-5.76-1.21.49.29.79.77.91,14.29,2.53,28.94,7.31,42.3,13.49-.25-3.62-13.92-5.6-18.15-8.64ZM0,198.51c12.88,3.44,28.88,6.45,41.31,13.18,9.84.28-38.82-16.1-41.31-13.18ZM108.47,199.69c3.02.88,6.01,1.81,9.39,2.24,9.75,2.99,19.34,6.35,28.62,10.58-5.89-6.23-33.81-13.92-43.33-14.35.36,1.82,3.78,1.15,5.32,1.53ZM300.47,198.34c-.28.17-.36,1.04.13.87.28-.16.22-1.08-.13-.87ZM248.3,213.42c-1.53-1.99-5.33-2.09-7.26-3.69-11.79-4.1-22.8-8.5-35.54-9.81-1.38,0-.41.78.39,1.02,9.65,1.1,18.99,4.51,27.69,7.17,2.4,1.1,4.77,2.03,7.31,2.73,2.15.3,6.19,4.53,7.41,2.57ZM55.94,215.72c12.71-4.9,28.36-11.32,42.78-12.78-6.17-3.21-38.69,8.86-42.78,12.78ZM300.58,204.18c-13.72,1.87-28.64,6.55-40.77,13.46,11.22-3.65,24.92-10.04,37.56-12.09.95-.15,3.41,0,3.2-1.37ZM99.81,207.51c3.05-.59,7.08-.4,9.48-2.43-9.15.11-18.17,3.89-27.18,6.45-5.54,2.23-12.34,4.01-16.95,7.4,8.49-2.17,16.63-6.98,25.4-8.88,3.06-.99,6.19-1.56,9.24-2.54ZM187.06,208.26c-10.27,2.31-20.15,6.09-29.67,10.49-1.31.82-.38.94.63.7,13.76-5.88,28.15-10.72,42.89-13.05-.84-2.4-11.27,1.39-13.85,1.86ZM96.15,213.31c.14-.32-31.32,11.85-17.45,8.04,12.61-6.13,25.84-9.5,38.88-11.93,4.54-3.38-19.58,3.45-21.43,3.89ZM200.4,211.55c.9-.18,13.5-2.17,9.91-2.91-7.86.8-15.42,3.23-22.92,5.54-6.62,2.38-14.84,4.52-20.39,8.67,11.06-3.52,21.9-8.84,33.4-11.3ZM298.52,209.62c-8.92,3.25-21.14,5.68-28.36,11.11,4.84-.99,9.51-3.69,13.96-5.46,1.35-.33,22.3-6.19,14.4-5.65ZM127.12,211.28c-14.09,2.25-27.58,7.61-40.65,13.12-3.71,3.29,4.78-.94,5.9-1.1,2.89-3.9,45.68-12.6,34.75-12.02ZM214.89,212.99c-12.94,2.5-26.25,6.4-38.01,12.87,14.53-4.93,27.83-10.68,44.09-12.99.44-2.12-4.88-.36-6.07.12ZM139.33,214.68c-13.74,1.49-33.48,7.24-43.19,13.7,11.28-4.16,23.87-9,35.95-11.77,2.06-.67,6.52.28,7.23-1.93ZM201.52,222.6c-4.66,2.24-10.53,2.97-14.44,6.49,14.61-5.89,30.73-10.16,44.05-13.67-10.09.03-20.14,4.36-29.6,7.18ZM280.93,224.06c4.69-2.05,9.41-3.94,14.19-5.75,1.13-.81,5.97-1.01,5.64-2.63-1.56-.88-6.86,2.72-9.63,2.92-.81.4-14.64,5.51-10.2,5.47ZM197.16,232.26c13.47-3.99,28.1-11.49,43.68-12.8-1.63-4.05-38.14,8.75-43.68,12.8ZM185,233.44c-13.79-6.04-27.46-11.85-42.75-12.99.11,1.1,2.55,1.31,3.57,1.41,3.69.5,7.31,1.44,10.86,2.62,9.95,2.13,18.95,5.84,28.14,10.17,1.32.4.99-.7.19-1.22ZM271.68,226.82c-8.66-2.81-17.61-5.93-26.71-6.4,1.36,2.41,6.18,1.48,8.89,2.23,3.84,1.25,7.87,2.66,11.96,3.26,7.36,2.93,15.71,5.08,22.11,8.71.52.18,1.29.23,1.09-.33-5.02-3.63-11.6-5.17-17.34-7.47ZM290.05,227.26c3.83-.38,7.04-3.11,10.59-4.14.55-2.22-9.98,2.94-10.59,4.14ZM159.67,230.28c-3.64-1.32-29.79-9.22-26.28-5.75,14.53,2.34,28.98,7.98,42.17,13.17-1.29-2.6-12.11-5.54-15.89-7.42ZM266.29,231.51c-9.63-2.85-18.46-6.58-30.12-7.85-.63-.09-2.39-.16-1.21.6,9.87,2.24,20.12,3.93,29.48,8.19,4.74.73,9.23,3.78,13.05,5.22,5.38.29-10.27-5.51-11.2-6.17ZM129.51,228.99c12.31,2.05,24.86,8.08,36.16,11.93-12.83-7.52-28.2-12.34-43.55-14.12,1.07,2.04,5.33,1.06,7.39,2.19ZM229.47,228.36c5.97,1.53,11.82,2.67,17.65,4.58,4.16,1.3,8.46,2.59,12.37,4.5,3.19.41,6.21,3.6,9.16,3.28-12.64-7.19-28.19-12.06-43.67-13.73.23,1.57,3.21,1,4.49,1.37ZM300.78,229.87c-.15-.62-1.26,1.07-.11.54.18-.11.17-.36.11-.54ZM117.06,231.68c3.27,1,6.54,1.23,9.74,2.4,9.72,2.33,19.68,6.47,28.61,10.18-6.26-6.23-35.23-14.17-43.49-14.11.28,1.63,3.73,1.04,5.13,1.53ZM214.68,230.07c1.77,2.22,6.21,1.62,9.01,2.3,11.76,2.55,24.77,8.17,34.98,11.73-4.96-4.18-13.28-5.96-19.38-8.52-8.23-1.85-16.1-5.57-24.61-5.51ZM101.87,233.89c14.17,3.08,28.29,6.16,41.18,12.93,10.85.97-39.64-16.85-41.18-12.93ZM236.96,241.53c-10.41-3.01-21.42-8.33-32.04-8.09,1.6,1.73,5.74.96,7.96,2.19,8.37.11,56.49,21.01,24.08,5.9ZM156.82,250.81c13.87-4.94,28.95-10.87,43.93-12.98-.86-3.83-42.51,10.05-43.93,12.98ZM210.25,240.7c.55-.17,1.29-.79.43-.85-14.96,2.19-30.75,7.07-43.73,14.36,8.49-2.34,15.61-6.16,23.83-8.87,6.57-1.77,12.81-2.58,19.46-4.64ZM177.62,256.69c10.11-2.16,28.59-11.4,43.27-12.42-11-1.88-31.48,7.18-43.27,12.42ZM229.24,246.3c-13.8,3.38-30.65,6.68-41.84,14.26,1.79.42,4.65-2,6.85-2.36,2.53-3.76,45.58-12,34.99-11.91ZM200.65,262.96c9.8-5.17,21.72-8.1,32.23-11,1.6-.61,7.69,0,7.91-1.96-3.09-2.88-54.05,15.61-40.14,12.96Z"/>
</svg>