<?xml version="1.0" encoding="UTF-8"?>
<svg id="Layer_1" data-name="Layer 1" xmlns="http://www.w3.org/2000/svg" version="1.1" viewBox="0 0 300 300">
  <defs>
    <style>
      .cls-1 {
        fill: #231f20;
        stroke-width: 0px;
      }
    </style>
  </defs>
  <path class="cls-1" d="M286.71,190.14c-2.19-4.59-9.71-8.29-11.17-11.97,1.78-21.13-1.73-19.34-14.96-30.32-2.42-6.59,5.4-15.21.8-21.34-2.4-3.41-7.7-5.04-11.57-5.68-7.65-6.64-8.79-9.82-20.15-8.48-17.08,11.06-11.16-8.17-13.16-18.15,11.64-10.8,11.7-14.26.5-26.93-11.57-13.44-19.43-32.68-33.01-43.38-12.5,12-21.64,29.16-32.31,43.28-14.16,15.92-8.1,16,.8,28.42-3.18,4.23-7.9-4.82-11.77-5.69-45.08-3.06-23.32,26.49-36,22.04-6.48-10.94,6.73-41.37-13.56-40.99-6.97-1.15-14.69,2.42-16.56,9.47-.49,33.93-.65,14.78-13.37,25.83-14.82,38-20.82,21.98-42.28,48.87-3.13,3.16-6.55,6.05-6.68,10.87-1.47,10.44,8.84,9.84,9.87,13.86.33,8.7-1.34,21.14,2.89,26.93,7.12,9.36,25.87,10.64,36.1,15.16-.04,15.68,7.04,6.43,5.78,22.14-1.3,20.28,16.66,20.11,31.11,23.93,46.81-7.11,26.07-11.14,37.7-40.19.09-7.61,6.46-6.8,12.47-8.68,7.07-2.05,7.71-12.02,14.46-10.97,2.93,2.55,9,1.16,9.47,5.49.24,2.53-1.94,3.63-1.6,5.88,5.93,8.76,1.87,18.58,5.39,28.23,11.51,17.79,53.21,17.11,63.73-1.5,2.3-5.69-2.17-16.37,2.19-19.85,5.34-4.26,11.9,1.72,19.45.3,11.12-3.03,22.35-4.58,22.34-19.45-1.92-8.88,7.2-8.66,3.09-17.15ZM232.05,118.03c7.41-.47,8.31,1.28,12.87,6.38,3.53,2.5,11.75,1.89,12.37,7.18.65,5.52-5.66,13.79-1.6,19.15,4.01,5.28,12.29,6.28,14.36,13.46,3.27,16.37-10.71,6.82-18.85,4.39-6.14-1.28-12-3.62-17.85-5.78-12.01-.99-10.14-6.2-10.47-16.25-3.57-9.11-4.67-28.53,9.18-28.52ZM224.87,166.9c14.72,2.96,28.15,7.85,41.49,13.06,1.94.81,10.21,5.24,9.47,7.48-1.34,2.89-5.76-2.67-10.47,1.3-4.35,2.65-5.38,10.69-11.07,11.57-10.88-.63-18.78-6.71-28.62-9.38-3.88-1.18-9.67-2.33-11.57-5.49-1.28-5.14,5.27-17.52,10.77-18.55ZM115.97,100.98c2.55-3.56,13.16-5.3,18.05-6.88,8.99,1.57,21.98,11.46,15.66,20.34-.71,4.19,1.05,10.05-2.09,11.77-4.29-.32-6.9-5.16-10.67-6.48-4.17-2.3-8.32-1.46-12.27-3.79-9.24-.64-12.75-7.04-8.68-14.96ZM58.52,215.17c-15.38-.6.08-19.15-13.36-23.84-11.57-5.09-.94,21.06-11.67,16.16-8.75-3.17-5.4-22.09-5.38-29.22.09-.34,14.98-14.48,16.26-15.16,7.34-.06,10.36,15.9,15.06,19.95,14.95,15.95,23.58-19.36,20.54,22.04-4.08,6.08-13.73,11.76-21.44,10.07ZM126.74,251.08c-4,8.72-27.83,14.68-35.7,8.97-2.19-2.86.5-12.58-2.09-14.46-14.17-5.89-8.71.12-11.77,10.07-5.27.82-6.89-13.95-5.58-20.64.75-3.84,8.83-9.62,12.17-11.37,5.72.48,8.27,15.88,16.65,18.15,17.23,2.11,30.29-17.11,26.33,9.28ZM150.07,211.08c-4.25-.23-.59-15.63-2.99-18.85-5.5-7.36-16.62-.45-19.55,4.69-2.1,8.59-3.14,7.72-8.97,2.39-19.96-8.86-37.06,19.86-32.41-16.06.76-1.79,5.21-2.01,7.58-1.2,25.72,14.51,24.57-17.9,35.3-31.51,11.14,7.51,8.4,18.81,23.84,24.13.43,9.92,2.98,30.13-2.79,36.4ZM113.97,169.59c-3.35,14.82-12.27,10.36-21.64,6.39-13.39-2.37-20.44,8.9-28.03,4.49-14.11-20.93-13.85-35.62-36.4-9.38-2.46,1.8-7.87,1.45-9.58-.7-4.54-8.59,13.72-20.52,18.95-26.43,6.15-3.33,13.83-5.91,17.65-12.37,5.22-7.43,5.7-19.57,13.86-24.04,12.82,5.17-8.4,50.39,18.75,44.68,7.87-.9,13.15-14.86,15.46-21.94-2.94-22.91,18.84-6.8,30.12-6.38,9.98,3.52,14.05,14.36,19.25,22.74,2.74,4.41,9.85,12.54,6.38,18.05-21.93,17.49-21.41-58.85-44.78,4.88ZM160.54,202.01c-4.68-4.8-1.15-20.01-2.19-27.13,1.2-6.36,9.58-7.6,6.48-18.05-15.05-20.84-12.56-26.77-7.68-50.86.07-21.64,15.51,12.51,51.76-8.08,3.48-.93,4.37,20.22,4.49,23.74,2.79,13.79,3.69,26.71,5.48,40.89-4.08,6.16-8.69,12.64-11.07,19.75-.95,4.18,1.32,8.43-1.99,10.17-31.8-10.58-15.47,24.9-45.28,9.57ZM230.36,248.98c-5.76-.69.52-14.8-6.08-13.76-15.79,1.28-4.95,13.66-10.67,19.34-17.19,2.19-41.79-4.39-32.31-24.73,8.81.93,17.26,7.65,26.73,4.29,7.57-3.06,7.84-13.74,13.56-16.66,14.4-.13,18.39,24.72,8.78,31.51ZM276.73,210.78c-1.24-1.35-.3-4.63-1.4-6.18-2.16-3.08-10.69.05-11.47,2.69-1.48,5.03,2.52,12.72-3.09,13.56-6.14.92-13.1-.41-15.46-3.49-1.86-6.35-15.37-13.94-14.16-17.85,22.17,5.56,21.5,13.84,37.9-6.38,3.75-.07,8.85,4.59,9.68,7.28-.81,2.9,1.31,9.78-2,10.37ZM210.31,153.74c5.43-1.27,2.01-7.49,1.5-11.77-.7-5.83-.21-17.66-5.19-18.45-2.32,1.04-9.47,1.72-10.67,3.29-1.35,1.77-2.26,21.08-1.3,25.23,2.57,7.56,10.44.58,15.66,1.69Z"/>
</svg>