<?xml version="1.0" encoding="UTF-8"?>
<svg id="Layer_1" data-name="Layer 1" xmlns="http://www.w3.org/2000/svg" version="1.1" viewBox="0 0 300 300">
  <defs>
    <style>
      .cls-1 {
        fill: #000;
        fill-rule: evenodd;
        stroke-width: 0px;
      }
    </style>
  </defs>
  <path class="cls-1" d="M270.13,96.33c.75-4.95,9.84-8.81,7.68-15.15-11.39-11.76-28.36-19.26-41.43-29.64-3.11-2.21-8.59-7.65-13.31-7.57-13.71,8.36-26.22,18.01-39.59,26.83-3.28,2.3-12.05,6.63-13.31,10.28-2.63,7.63,9.4,11.61,10.28,17.42.65,27.53-.1,12.87-23.8,32.02-9.67,8.36-13.89,9.48-12.44-6.17,0-4.02-.98-11.02.65-13.85,12.08-12.21,13.25-16.47-3.79-25.85-12.8-8.8-25.6-17.6-38.4-26.4-2.61-1.81-11.85-9.86-15.58-8.87-16.63,9.6-32.53,22.84-48.9,33.21-3.5,2.41-14.28,8.03-15.47,11.79-2.99,9.46,10.63,14,12.33,19.8.07,7.86.14,15.72.21,23.58-.66,24.48,48.3,23.67,67.4,23.69,19.94-3.6-11.75,12.66-13.95,16.66-2.67,12.97,10.12,18.89,16.44,26.72,3.39,28.23-11.35,47.24,24.02,57.12,29.94,10.99,102.02,15.39,123.43-15.47.58-14.45.24-28.92.32-43.38,1.2-7.63,15.12-11.07,12.98-23.58-.71-4.14-11.01-9.3-14.39-11.68-14.64-10.17-29.28-20.34-43.92-30.51.01-1.29.2-2.11,1.19-2.38,17.88,2.73,48,2.03,59.39-10.38,4.55-5.62.62-19.43,1.95-28.23ZM223.4,48.41c3.66,0,6.63,2.79,8.11,5.08-4.31,6.47-24.64.8-8.11-5.08ZM211.39,57.17c20.5,8.02,22.78-7.87,36.67,7.57-.19,3.93-6.87,4.57-10.17,5.52-12.29,4.41-57.47-.9-26.5-13.09ZM194.41,68.1c21.33,8.56,38.07,10.79,58.42.22,18.08,7.22,11.58,11.31-3.25,15.9-16.56,5.7-37.57,4.83-52.57-1.62-12.05-3.74-16.39-8.61-2.6-14.5ZM176.12,125.32c4.07-.08,16.09,7.56,13.96,10.71-10.07,4.9-42.46,2.35-13.96-10.71ZM87.31,54.79c3.21-.08,11.72,5.12,10.06,7.68-7.01,4.45-30.05.49-10.06-7.68ZM72.6,65.5c27.2,8.99,25.62-7.27,39.81,4.87,15.2,7.54-10.13,13.3-17.63,12.44-6.66,2.25-16.17-.51-22.72-1.52-20.15-3.32-13.6-9.89.54-15.79ZM52.8,78.59c20.29,9.35,43.02,12.92,62.74,3.68,8.78-6.61,16.04.08,21.96,6.16-.13,3.99-13.96,8.6-17.96,9.84-18.33,6.94-43.56,6.15-60.47-.22-14.48-6.01-27.95-9.39-6.27-19.47ZM34.63,90.92c13.62,4.94,24.98,14.06,40.89,15.47,19.08,1.58,39.74-.36,56.69-8.87,4.62-3.02,15.87-9.09,16.55.44-19.7,28.25-74.68,24.89-103.96,14.28-8.56-3.7-26.52-13.92-10.17-21.31ZM103.75,154.86c-1.96-9.96,2.48-21.51-12.87-23.69-9.12-1.14-13.61,5.3-14.6,12.33.28,11.96,1.28,14.24-11.68,11.14-26.16-6.33-27.42-11.03-25.21-36.13,1.89-4.43,7.06-.96,9.84.22,26.59,8.89,64.89,6.3,87.73-3.89,5.94,1.41,1.69,16.52,3.03,21.85-.68,11.53-27.57,22.52-36.24,18.17ZM233.24,254.71c-6.59,2.64-29.55,11.11-35.05,6.81-1.95-2.65-.05-12.62-.65-16.88-1.45-10.32-9.43-17.53-22.5-15.69-22.45,5.11-8.54,28.88-16.55,33.86-14.04-2.86-41.49-6.36-47.17-20.34-.68-4.27-1.97-31.63,1.52-33.65,38.8,12.59,96.04,16.02,130.57-2.38,5.96-.02,3.79,13.2,3.79,19.04,0,19.96.34,22.86-13.96,29.21ZM259.31,183.52c-13.35,30.66-86.14,33.8-114.67,26.72-13.54.85-72.2-22.78-40.02-36.02,4.62-.02,13.13,6.38,17.09,8.44,8.26,4.3,17.82,7.59,27.48,10.38,28.26,5.48,59.29,3.89,85.57-8.87,7.01-3.62,22.48-14.51,24.56-.65ZM244.49,171.95c-1.96,4.69-15.33,8.69-20.66,10.82-18.72,7.97-39.22,8.94-59.39,8.01-10.03-3.12-20.88-3.55-30.51-8.44-4.62-1.94-20.14-7.63-21.09-11.9-.76-3.4,13.6-11.62,16.66-12.87,23.24,10.12,49.77,17.31,74.53,8.22,23.54-5.63,16.77-16.47,40.46,6.17ZM200.14,161.35c-6.61,3.3-14.29.93-21.2,3.57-10.42-2.03-20.81-1.17-30.61-5.52-21.92-3.87-2.89-14.15,6.92-19.36,8.77.75,13.07,3.85,21.53,4.33,11.46.92,21.06-9.77,30.4.32,19.24,10.33,7.92,13.01-7.03,16.66ZM266.67,117.75c.1,8.99-25,16.96-30.08,12.22,3.41-19.21-17.91-27.36-22.39-8.55.46,10.49-.43,11.81-10.38,8.76-6.61-1.97-18.05-5.58-19.8-11.9-.67-3.6-1.51-18.43,1.84-19.15,23.08,7.92,57.23,9.42,77.78-1.19,5.86,1.29,1.73,14.77,3.03,19.8ZM187.16,95.14c-6.66-2.94-20.63-11.91-6.92-16.98,24.79,14.68,55.18,17.83,79.4,5.63,3.97-2.48,13.84-8.01,14.06.44-16.62,23.24-62.6,19.93-86.54,10.92Z"/>
</svg>