<?xml version="1.0" encoding="UTF-8"?>
<svg id="Layer_1" data-name="Layer 1" xmlns="http://www.w3.org/2000/svg" version="1.1" viewBox="0 0 300 300">
  <defs>
    <style>
      .cls-1 {
        fill: #211e1f;
        fill-rule: evenodd;
        stroke-width: 0px;
      }
    </style>
  </defs>
  <path class="cls-1" d="M271.81,92.64c-3.01-3.22-7.12-4.61-10.81-6.77-1.72-.51-3.56-.51-5.02-1.71-2.65-.76-5.65.04-8.16-1.07-5.36-2.59-11.96-.88-18-1.09-2.56,1.08-5.04,2.13-8.04,1.87-1.86-.33-2.95.75-4.38,1.55-2.6-.17-4.34,1.33-6.47,2.55-4.62,2.32-7.76,6.33-9.81,10.83.02,11.97-1.19,25.16.31,37.02.76,1.49,10.32,8.78,5.27,8.49-2.57-.73-5.57.05-7-1.53-.5-.45-.99-.65-1.75-.72-2.25-.02-4.64-.67-6.01-2.56-2.77-7.12,1.46-16.14-3.05-22.9-.74-1.3-2.22-2.66-.64-4.04,9.02-7.38,3.79-26.56,4.32-38.89-1.71-3.3-2.86-7.05-5.89-9.49-2.2-1.3-4.35-2.75-6.44-4.25-1.33-.48-2.77-.65-3.77-1.79-1.94-.93-4.45-.49-6.24-2.17-3.34-.96-7.08.09-10.32-1.47-6.03-1.89-12.56-.58-18.57.99-2.39.76-5.42-.37-7.49,1.39-1.18.79-3.08.49-4.24,1.05-1.25.93-2.81,1.44-4.18,2.09-3.31,2.83-7.29,5.69-8.82,9.97-1.45,11.81-2.02,24.96-.28,36.69,1.37,3.64,5.58,6.03,1.29,9.78-7.72,6.29,3.64,25.25-10.84,25.99-1.39,1.71-6.06,1.86-5.43-.87,3.8-2.78,5.94-6.82,6.07-11.64.28-6.94-.31-13.99.03-20.94,1.14-11.58-3.26-17.85-13.18-22.91-.7-.4-1.52-.39-2.32-.51-2.34-.21-2.27-1.83-4.82-1.71-2.8.01-5.62-.1-7.91-1.69-5.79-.3-12.62-1.29-17.94.66-3.11,1.87-7.4-.14-10.22,2.18-25.34,4.93-20.77,27.55-20.52,49.58.74,3.34,4.54,5.56,7.11,7.62,17.95,13.23-4.71,68.34,11.15,80.45,2.87,2.45,6.52,3.63,9.73,5.45,2.36.76,5.24.01,7.58,1.14,2.66,2.13,6.28.3,9.16,1.81,1.14.97,2.15,1.47,3.69,1.38,1.86-.08,3.11.7,4.61,1.66,2.52.68,5.03.7,7.17,2.19,1.96.33,4.08.2,5.47,1.64,2.12,1,4.71.17,6.37,2,2.63.86,5.01.65,7.31,2.36,1.56.34,3.74.18,4.96,1.01,2.34,1.88,5.73.77,8,2.94,4.98.35,7.91,4.73,12.06,6.75,3.15,1.84,6.16,3.74,9.89,3.88,1.48.44,2.35,1.85,3.99,1.63,3.34-.05,6.7.1,10.03-.06,2.48-1.4,4.78-1.91,7.83-2.17,1.88-1.58,4.49-1.78,6.48-3.21,3.4-1.95,6.59-4.15,10.08-6.04,2.25-.63,4.73-.49,6.59-2.06,2-.63,4.53-.3,6.24-1.87.89-.5,2.29-.34,3.43-.62,1.49-.29,2.6-1.56,4.04-1.87,2.23.02,4.03-.51,5.87-1.75,1.15-.42,2.56-.26,3.68-.58,2.09-1.56,4.51-1.75,6.98-2.14.99-.37,1.77-1.09,2.81-1.35,1.9-.4,4-.37,5.55-1.75,1.31-.74,2.99-.45,4.38-.85,2.06-1.45,4.08-2,6.75-1.76,2.94-.24,5.12-2.57,8.41-2.02,1.49.15,2.44-.71,3.65-1.46,3.4-.55,5.76-3.06,8.8-4.53,11.73-16.25,1.74-54.35,5.1-75.92.35-3.42,4.99-3.76,7.04-5.89,4.74-2.16,5.67-7.01,4.98-11.77-1.53-11.75,4.19-28.47-5.67-36.22ZM190.35,156.92c2.32-2.55-.88-8.95,2.52-10.27,1.6-.56,2.78.91,4.16,1.36,2.08.22,4.17-.07,5.48,1.41,2.4,1.28,4.63,0,7.09,2.53,2.71,2.45,2.15,10.27-2.04,10.29-2.13.96-3.83,2.12-6.56,2.03-2.23,1.75-4.37,1.71-7.66,2.83-1.89,1.21-4.32.68-6.14,1.96-1.31,1.09-3.25,1.35-4.81.83-1.65-.57-1.39-3.1-.85-4.42.74-.97,1.86-1.73,2.69-2.64,2.64-1.26,4.65-3.46,6.12-5.9ZM121.26,72.7c2.79-6.19,9.57-10.39,16.13-11.05,2.5-.93,3.61-1.91,6.55-1.75,8.17.32,17.32-1.23,24.33,1.83,2.46-.29,4.18.59,6.03,1.96,2.82.34,4.95,1.93,7.07,3.67,2,.74,2.9,2.57,4.07,4.16.56.54,1.33.94,1.42,1.79.26,2.15.21,5.31-.06,7.58-1.17,9.24,6.48,38.07-12.73,24.82-11.17-2.89-22.43-2.43-33.88-1.7-2.41,1.21-4.67,2.02-7.52,2.12-2.28,1.51-5.51,2.54-8.17,1.93-7.68-5.63-2.12-26-3.24-35.37ZM102.41,150.09c3.75-2.36,3.44-1.36,7.01-2.52,4.01-3.24,5.83.57,5.19,4.48-1.67,8.34,5.23,9.89,10.44,13.86,4.63,3-2.09,6.09-4.37,2.66-1.4-.63-3.31-.08-4.68-.85-.94-.59-1.55-1.65-2.82-1.56-2.97.34-4.17-1.65-6.66-1.9-2.78-.08-4.27-1.89-6.62-2.29-4.5-2.56-3.38-12.1,2.52-11.87ZM126.43,185.26c-.47.99-1.85.63-2.68,1.12-.99.73-1.8,1.65-3.08,1.89-.98.34-1.62,1.27-2.54,1.71-2.98,1.07-5.47-2.64-5.48-5.36-1.65-1.96-2-4.39-4.17-5.97-3.77-1.54-4.11-3.05-8.57-2.31-3.73,1.88-3.57-7.91-.24-8.06,2.74-.61,4.28.75,6.6,1.92,1.55.45,3.31.04,4.58,1.19,1.7,1.36,4.25.52,6.01,1.87,2.49,1.39,5.49,1.03,7.73,3.02,3.35.08,2.14,7.25,1.84,8.98ZM47.18,140.12c-1.6-.21-3.13-.2-4.22-1.6-1.31-.91-3-1.28-4.24-2.27-4.49-7.66-2.69-28.07-.89-37.24,2-3.16,5.1-4.36,7.85-6.53,1.77-.35,3.28-1.11,4.69-2.16,1.16-.39,2.62-.02,3.89-.36,2.04-.92,4.01-2.1,6.38-1.91,14.82.18,34.96-2.5,41.82,13.58.41,1.32.29,2.99.21,4.5-1.45,8.92,2.73,20.37-1.77,28.1-10.52,11.83-31.95,6.61-47.08,7.58-2.46-.23-4.41-1.12-6.64-1.69ZM89.52,181.86c-2.64-4.16,3.08-2.79,5.02-4.28,2.65,1.19-3.76,5.76-5.02,4.28ZM68.05,173.57c-5.62,5.49,3.62,52.67-5.53,50.29-1.43-1.14-2.97-1.72-4.82-1.85-1.27-.72-2.29-1.64-3.78-1.94-.98-.72-1.74-1.69-2.8-2.34-5.05-19.95-3.52-49.38-.71-69.32,7.27-1.29,14.62.79,20.98,1.39,5.83-1.42,12.68-2.25,19.12-1.54,3.8.96,1.87,18.47,1.7,22.34-.44,1.38-2.2,1.77-3.09,2.9-1,.63-2.42.66-3.77.53-2.52-.04-2.52-2.18-4.38-3.39-2.32-1.43-4.56-3.57-7.42-2.41-2.02,1.53-4.54,2.81-5.5,5.32ZM124.13,240.38c-3.32.62-4.11-1.72-6.64-1.93-1.64-.02-3.2-.11-4.09-1.01-1.55-1.89-5.4-.47-6.88-2.07-.62-.63-1.41-1.02-2.32-.99-3,.46-4.3-1.62-6.74-2.19-3.48.43-3.62-1.3-6.21-1.93-2.93.25-3.58-.72-5.59-1.87-2.73.15-4.68-1.03-6.92-2.1-1.05-.24-2.46-.22-3.61-.4-2.8-.41-4.21-5.66-.26-5.3,1.58-.12,2.39,1.15,3.69,1.66.98.15,2.4.07,3.33.34,1.89.43,2.09,1.46,4.3,2,1.67.39,3.48.12,4.68,1.56,1.72,1.06,4.51-.05,6.14,1.63,2.32,1.13,5.53.34,7.2,2.39,3.24.6,4.55.18,7.19,2.35,2.03.26,4.14-.13,5.63,1.61,1.79,1,4.64.08,6.28,1.85,3.38,1.14,5.18,3.86.82,4.4ZM126.51,228.92c-1.19,3.54-5.58.08-7.77-.46-2.08-.05-4.14-.16-5.39-1.61-2.27-1.08-4.28.28-6.34-2.01-1.51-.95-4.27-.12-5.45-1.23-2.38-2.29-5.11-.51-7.66-2.9-2.76-.57-4.91-.37-7.26-2.23-2.42-.29-4.06.06-5.81-1.85-2.04-1.04-4.75.37-6.11-1.97-5.16-3.56-.63-24.37-2.02-32.12-.81-7.74,4-9.11,7.4-3.01.47,3.92,2.93,6.91,7,7.01,2.93,2.01,4.71,2.66,7.51.07,3.57-1.21,5.15-6.08,9.74-4.13,1.66.48,2.03,2.09,2.4,3.55,3.76,8.28,4.3,9.98,14.15,8.45,1.78-.47,4.69-3.86,5.45-.38.75,11.08.67,23.73.16,34.82ZM174.66,245.28c-1.3,1.7-3.13,2.95-5.17,3.4-1.24,1.37-2.68,1.7-4.44,1.93-3.78,2.86-8.9,1.45-13.35,1.83-3.08-.03-6.7.87-8.98-1.77-1.45-.65-3.17-.32-4.17-1.82-1.07-.72-2.53-.59-3.3-1.79-1.48-1.45-2.32-1.3-2.43-3.78,2.36-10.04-5.15-77.32,4.02-74.38,7.74,3.22,17.05.44,25.46,1.49,1.7.02,3.46.01,5.1-.21,2.33-.49,1.86-1.74,5.35-1.86,4.95-.07,2.53,4.23,2.6,7.1,1.32,22.69,2.65,47.66-.69,69.89ZM178.73,159.95c-.9.28-1.51,1.12-2.25,1.61-1.08.73-2.5.39-3.63.87-2,2.27-5.49,1.53-8.67,1.67-4.45,2.52-14.75,3.01-19.27.59-3.91-1.22-9.21.43-11.97-2.42-3.18-.12-4.1-1.01-6.58-2.29-1.94-.96-4.36-1.86-5.64-3.69-3.99-4.12-.65-10.25-1.08-15.16-.58-7.2-2.39-16.91,2.92-21.81,2.72-3.75,7.1-4.19,10.64-6.74,1.6-1.08,3.94,0,5.42-1.32,1.59-1.44,5.02-1.26,7.39-1.14,8.95.11,18.27-1.14,26.07,1.9,2.82.7,4.9,1.75,7.05,3.46,1.36.83,3.06.97,3.94,2.53,3.98,5.22,4.14,15.59,2.48,21.75-1.62,6.33,4.41,13.05-3.66,18.17-1.53.99-1.11,1.52-3.17,2.02ZM184.74,175.91c1.37-1.72,3.45-1.57,5.73-1.76,1.33-.97,2.83-2.21,5.13-1.93,2.12-.11,1.65-1.68,4.07-1.83,1.87-.15,2.52.12,4.08-1.19,1.65-1.14,4.75-1.52,6.59-.31.75.72.59,3.41.59,4.6.26,5.64-5.93.42-8.69,4.19-2.81.79-5,3.59-5.65,6.36-.87,1.46-1.81,2.73-2.05,4.49-.92,1.92-4.36,2.17-5.53.39-.45-.47-1.1-.65-1.72-.79-1.68-.42-2.47-1.8-4.12-2.15-3.74-.71-3.15-10.38,1.58-10.07ZM230.8,226.57c-2.38,2.12-6.09.85-8.34,3.24-1.7,1.14-4.34-.25-5.79,1.35-1.4,1.95-5.06.29-6.64,2.35-1.01.94-3.12.59-4.59,1.05-1.48.28-2.69,1.52-4.18,1.71-3.25-.43-4.9,2.69-8.13,2.22-3.35-.06-1.15,2.15-6.95,2.04-.7-.01-1.42.22-1.97.6-1.93,1.76-3.84-1.79-2.79-3.45,1.21-1.52,3.64-.85,4.9-2.52,1.76-1.05,4.17-.06,5.74-1.52,1.12-1.03,2.68-1.07,4.38-1.2,2.91-1.43,3.95-1.79,7.34-2.12,1.99-1.61,4.02-2.13,6.63-1.99,3.36-3,4.93-.9,7.9-2.92,1.52-1.45,4.57-.41,6.22-1.94,2.04-1.52,5.86-.83,8.21-2.75,7.48-1.24,2.97,6.37-1.95,5.86ZM233.92,214.76c-1.61,2.34-4.62,1.11-6.79,2.07-1.31,1.47-2.52,1.53-4.53,1.55-.99-.06-1.87.35-2.52,1.06-1.89,1.26-5.86,1.14-8.31,2.73-2.23.04-4,.75-5.89,1.85-1.32.44-2.93.18-4.26.71-1.34,1.21-2.68,1.87-4.59,1.75-4.18-.06-.73,2-7.97,2.1-2.07.47-4.33,3.35-6.51,1.79-1.58-1-1.83-5.21-1.46-8.21,1.15-5.85-1.84-23.61.97-28.93,1.86-3.16,5.05,3.87,13.32,1.43,1.64-.21,2.29-1.92,3.52-2.85.81-1.6.07-1.96,1.69-3.48.85-4.04,4.06-8.23,8.45-5.27,2.4,1.8,4.79,4.1,7.5,5.19,2.64-.07,4.41-2.09,7.32-2.16,1.3-.25,2-1.51,3-2.26.67-4.46,2.14-3.22,2.77-6.87,3.24-2.7,5.34-3.42,5.42,1.69,1.51,2.57,1.88,5.38,1.59,8.37-1.62,8.93,3.07,20.95-2.72,27.73ZM214.25,178.1c1.49-.37,5.75.41,5.89,2.35-2.78,3.26-5.24,1.16-5.89-2.35ZM245.86,223.48c-8.86,4.6-.37-41.71-4.92-49.43-2.01-2.42-1.49-3.46-4.85-4.74-3.48-3.29-7.98.72-10.86,3.05-2.1,4.29-9,.29-9.9-3.05-.26-2.48,1.33-5.06.69-7.45-4.92-17.23,8.98-14.24,21.78-12.28,9.54.37,24.27-7.99,21.61,8.05-4.15,19.78,10.93,62.24-13.56,65.85ZM271.36,134.05c-6.43,8.25-19.89,8.34-30.07,7.59-9.72.29-20.27,1.49-28.36-3.25-10.06-2.98-7.5-15.56-7.29-23.59.25-4.62-1.6-10.99,1.25-14.34.63-5.35,6.11-7.09,10.1-9.55,1.82-1.45,4.62-.56,6.63-1.71,6.85-2.95,17.1-.3,25-1,4.32-.02,2.83,1.1,5.45,1.78,3.15-.03,3.93.65,6.34,1.94,2.18.27,2.03.74,3.58,1.9,2.76.86,4.72,3.03,6.59,5.11,3.19,9.88,3.06,24.51.78,35.13ZM131.24,81.76c1.33.79,1.68,2.24,3.22,2.73,1.93,2.08,4.82,1.61,7.44,1.58,3.55-.76,4.65-5.06,6.89-7.47,1.35-3.48,5.87-2.92,8.96-2.44,1.05.7,1.75,1.96,2.69,2.82,1.31,5.98,5.75,8.44,11.97,7,.97-.23,1.41-1.16,2.22-1.71,1.55-.97,2.16-1.06,2.87-2.9,2.71-2.41,3.19-13.51-1.32-11.33-2.56,1.08-.98,4.43-1.66,6.36-.59.98-1.57,1.7-2.14,2.72-2.14,1.75-3.95,3.85-5.62.22-3.45-5.82-7.21-11.13-14.97-9.42-.97.04-1.4.94-2.2,1.38-.75.43-1.73.31-2.41.84-1.83,1.87-3.59,3.85-4.69,6.29-.35.97-1.06,1.17-1.97,1.48-4.95,2.94-4.98-4.95-7.06-7.6-.85-3.24-3.1-2.96-4.52-.29-.24,1.66-.52,4.05.27,5.3,1.56,1.11,1.17,3.06,2.04,4.44ZM57.26,114.3c2.8-.71,3.8-4.04,5.35-6.16.79-2.73,3.38-4.88,6.25-4.6,2.11.86,5.04.42,5.73,3.21,2.87,3.92,5.17,8.73,11.1,7.47,1.14-.04,1.66-1,2.52-1.61,1.62-.78,1.87-.52,2.85-2.26,2.07-2.87,4.36-6.75,3.52-10.57-.84-1.59-3.52-2.91-4.39-.69-1.78,1.71-1.22,4.56-2.35,6.44-1.36,1.96-3.3,3.18-5.79,2.14-.97-.35-.99-1.38-1.42-2.21-1.23-1.36-1.85-3.2-3.41-4.19-.64-1.15-1.74-1.55-2.93-1.92-1.09-.91-1.92-1.58-3.44-1.41-5.85-1.17-10.62,1.74-12.75,7.16-.94.97-2.37,3.68-3.53,3.89-.67-.08-1.38-.87-2.09-1.07-1.4-.19-1.7-.77-2.18-1.88-2.09-1.47-1.74-4.16-1.82-6.82-.1-1.01-1.12-1.45-2.03-1.51-4.07.19-2.05,6.25-2.11,9,1.78,5.13,7.12,9.02,12.93,7.59ZM263.74,98.32c-5.68-2.28-3.71,5.98-5.89,8.56-1.52.92-5.14,2.97-6.07.48-.83-1.85-2.34-3.11-2.79-5.14-3.11-3.95-7.32-4.71-12.32-4.33-1.78.22-2.63,1.69-4.3,2.2-2.17,1.56-3.28,4.06-5.04,5.91-.59,2.4-4.28,2.58-5.68,1.18-.8-1.55-2.25-2.19-2.45-4.04-.25-1.75.39-3-1.34-4.19-2-2.27-3.89.11-4.84,2.04-.35,1.59,1.2,1.87,1.56,3.36.23,3.16,1.97,5.71,4.46,7.63,1.38.51,1.86,2.2,3.45,2.12,3.41.45,6.78-.13,8.62-3.29.44-2.15,1.9-2.5,2.79-4.43,1.92-3.32,8.16-3.67,10.63-.96.5,1.48,1,2.66,2.18,3.7.45.75.31,1.77.78,2.51,2.36,3.3,5.23,2.56,8.9,2.51,1.6-.03,1.71-.88,2.88-1.57,1.12-.39,2.16-.79,2.56-2,2.03-2.99,5.73-9.52,1.94-12.24ZM174.4,119.92c-1.1.07-1.23,1.16-1.29,2.04-.22,2.47-1.43,3.6-2.34,5.82-.53,2.04-3.11,2.56-4.86,1.79-2.72-2.46-3.32-6.71-6.86-8.17-4.39-3.14-12.85-2.43-15.8,2.11-.83,1.23-1.57,2.39-2.43,3.58-.68,1.79-.11,2.54-2.52,2.8-2.47.6-4.71-1.31-5.36-3.62-.3-2.45.12-5.98-2.99-6.56-1.47-.21-2.78.17-3.14,1.74-.96,3.02.89,6.21,1.93,9.01,1.77,1.34,2.32,3.61,4.67,4.09,2.91,2.89,7.92,2.23,10.16-1.11,1.59-1.79,2.23-4.14,3.6-6.12,1.8-2.15,4.93-4.56,7.61-2.19,1.89,1.3,3.48,2.61,4.39,4.75,2.23,2.37,3.94,6.6,7.81,6.29,3.7-.39,7.22-3.06,8.93-6.38,1.87-1.99,1.61-5.36,2.04-7.89-.31-1.77-2.02-2.1-3.56-1.98Z"/>
</svg>