<?xml version="1.0" encoding="UTF-8"?>
<svg id="Layer_1" data-name="Layer 1" xmlns="http://www.w3.org/2000/svg" version="1.1" viewBox="0 0 300 300">
  <defs>
    <style>
      .cls-1 {
        fill: #221f1f;
        fill-rule: evenodd;
        stroke-width: 0px;
      }
    </style>
  </defs>
  <path class="cls-1" d="M257,205.23c-.41-5.1,1.7-11.56-1.09-16.14-2.48-8.26-9.76-14.29-17.25-18.07-4.39-2.81-10.99-3.55-12.66-9.29-1.81-13.95-2.19-29.73,2.03-42.54-.05-1.32-.97-2.29-1.45-3.46-.5-1.81,0-3.92-1.39-5.45-.95-1.83-.21-4.33-1.55-6-1.34-2.01-.36-4.85-2.02-6.77-.91-2.26-.58-4.87-2.1-6.96-.14-2.68-.62-4.66-1.97-7.04-.56-2.16-.4-3.98-1.6-5.91-.85-1.94-.06-3.71-1.15-5.23-1.61-2.67-.97-6.17-3.42-8.51-4.36-3.51-5.18,14.38-7.82,8.71-.95-5.48-3.64-10.47-4.3-16.02-.09-1.66-1.18-2.22-1.63-3.61-.34-1.89,0-3.93-1.41-5.46-.59-1.08-.3-2.32-.43-3.56-.38-2.11-2.22-3.49-2.01-5.84-1.17-3.43-1.09-7.42-3.62-10.3-2-1.54-4.01.11-3.88,2.34-.55,1.54-1.71,2.92-1.53,4.67.11,2.27-1.7,3.65-2.02,5.74-.1,1.47-.08,2.95-.87,4.19-1.04,1.61-.58,3.63-1.27,5.35-1.35,1.77-1.39,4.21-1.72,6.24-1.16,1.64-1.63,3.37-1.69,5.36-1.12,2.54-1.69,4.92-2.12,7.62-3.15,4.17,1.96,7.89,2.07,12.18.79,9.99-.97,9.62-9.32,6.45-1.96-1.53-5.01-.72-7.01-1.74-2.58-2.02-5.79-.43-8.33-2.61-7.38-5.98,7.47-29.53-13.91-27.41-11.44,2.84-6.26,12.66-8.38,20.45-2.52,2.89-6.07-1.16-9.14-.92-17.78-5.74-21.57,1.33-30.12,15.16-5.8,7.48,2.26,10.6-.89,16.36-1.08,1.04-3.71-1.1-5.68-.18-3.61,1.59-8,2.3-11.68,3.44-5.09,2.54-14.37,3.65-12.57,11.51.79,2.75,4.06,4.27,3.7,7.4-2.17,9.62,5.41,38.31-5.34,40.69-24.07,9.51-20.45,36.41-19.71,58.11.54,3.64,2.32,7.07,4.75,9.85,10.82,12.11,25.93,19.53,41.09,24.32,4.85,2.42,10.41,2.62,15.14,4.65,2.91.56,5.98.27,8.68,1.81,2.57.65,5.49,0,8.04.7,6.28,2.96,13.64.4,20.3,2.18,21.86,3.33,44.78-1.32,66.3-4.82,17.73-4.86,36.34-11.31,48.88-25.81,8.29-9.61,4.29-23.47,5.07-35.81ZM231.7,183.95c3.24,1.82,5.77,4.97,5.32,8.89,1.03,2.97-.38,5.88-.11,9.08-1.02,2.35-3.09,4.14-4.1,6.57-3.5,3.21-5.57-.48-4.74-4.49,1.35-1.88-3.48-25.75,3.64-20.05ZM223.87,215.14c-3.32,2.59-7.3,4.55-11.39,5.39-6.89,5.38-6.27-7.9-8.33-11.43-1.76-1.6-.79-4.06-1.77-5.97-1.29-1.65-.89-2.87-1.47-4.79-1.71-3.41-7.29-1.32-3.88,3.99.93,5.09,3.29,9.74,4.13,14.87,1.49,2.59,2.98,6.93-1.56,6.9-2.43,1.86-5.41,1.45-8.67,1.74-2.82.55-5.86,2.59-8.34.66-2.28-1.21-4.92-2.21-6.39-4.4-.81-4.74,5.09-9.65,7.22-13.81,2.96-3.74,5.05-8.02,8.13-11.73,1.33-3.03,4.8-7.32,7.69-3.55,3.52,2.58,7.13,4.99,10.3,8.06,3.02,2.26,6.25,4.53,9.17,7.11,1.61,2.11,7.56,3.62,5.14,6.93ZM202.67,77.32c1.28.02,1.06,2.52.4,3.12-1.45.69-1.5-2.87-.4-3.12ZM202.22,130.28c2.97-.65,6.07.54,9.11.33,2.88,0,8.49-2.46,9.41,1.66-1.4,5.61,3.14,22.05-2.57,23.58-4.77-2.11-9.13-5.53-14.62-5.9-3.48-1.25-2.53-6.49-2.47-10.1.3-2.38-1.16-8.29,1.15-9.57ZM207.9,171.29c4.82-6.04,8.83,2.63,13.37,4.34,1.83,1.23,3.59,33.45-2.36,27.01-4.64-5.68,6.95-27.81-10.12-17.74-.99,2.85.04,8.59-4.91,5.5-3.82-4.39-11.19-4.57-14.43.61-3.07,4.23-5.98,8.94-8.95,13.34-7.87,11.76-3.7-17.28-4.61-18.25-.23-2.37-.66-7.7,2.52-6.61,2.74,1.44,5.9,1.74,8.39,2.94,2.54-.23,4.08,1.23,6.18,1.71,9.49-2.14,10.38-5,14.91-12.85ZM85.52,200.98c-.7-2.77,1.56-4.33,3.13-6.19,12.23-28.09,8.78,16.47,31.38,6.78,1.08-.84,2.51-.67,3.8-1.03,2.44-1.18,3.99-1.83,6.61-2.08,2.34-1.88,4.48-.71,6.86-2.61,1.48-1.1,3.87-.21,5.35-1.51,1.45-1.14,3.42-1.13,5.29-.63,3.95,1.14-.5,4.46,1.13,7.07.77,5.35,2.97,24.8-1.42,27.88-5.74,1.74-13.39.45-18.4-.96-5.7-.77-12.16,1.14-16.98-1.83-2.43-.3-6.55.5-8.29-1-1.41-1.34-3.37-.82-5.15-1.07-2.77-1.82-14.84-2.58-13.97-6.21.69-5.22,1-11.09.66-16.61ZM150.13,169.67c-4.18-4.3,2.42-5.99,5.78-6.93,6.23-.75,14.47.27,12.54,8.56.01,2.67,1.82,4.9,2.75,7.36.35,3.11.92,7.08-.26,9.78-.68,2.59-2.57,3.04-4.93,3.24-1.82,1.18-3.81,1.68-6.03,1.85-9.08,5.13-4.93-5.21-3.9-9.8.36-5.39-3.98-9.33-5.94-14.06ZM156.24,200.42c2.22-1.91,2.74-1.32,5.31-1.78,2.24-.92,2.95-1.85,5.71-1.73,8.15-1.71,2.7,17.56,4.03,22.65,5.48,11.76-7.54,10.31-15.37,9.32-2.46-.32-3.48-27.06.33-28.46ZM171.48,160.13c-2.14.93-2.41-.85-4.41-.93-4.78-.07-4.93-2.48-8.89-2.15-2.44.19-3.32,1.6-5.45,1.91-2.81-.23-5.02,3.36-7.56.96-4.93-8.73-25.11.81-18.75-10.82,3.04-1.9,7.69-3.22,7.82-7.52-1.83-6.33-8.61-9.1-13.13-13.15-6.61-4.72-13.26-9.16-19.68-14.16-3.97-1.14-8.33-7.88-1.36-7.82,3.19.53,6.54,2.13,9.66,2.42,1.87,1.93,4.79,1.32,7.03,2.18,2.15,1.72,5.3.38,7.14,2.6,2.04,1.07,4.68-.21,6.4,1.71,1.51.87,3.63-.05,5.03,1.22,1.85,1.52,4.68.46,6.61,1.9,1.7,1.32,4.23.52,5.92,1.67.74.53,1.55.96,2.49.91,11.02,1.81,15.11-2.81,20-11.7,2.22-5.99,7.51.02,10.89,2.67,4.11,7.77.8,25.5,1.64,35.03-1.67,2.3-4.67,3.81-6.27,6.36-1.59,2.28-2.45,5.36-5.13,6.71ZM185.68,81.54c3.1.11,9.31-.38,10.42,1.36,1.83,3.5,1.36,17.28.18,20.97-1.38,1.99-.88,4.29-1.29,6.54-.57,2.1-1.54,2.34-1.62,4.95.3,9.92,4.8,20.76,1.37,30.7-2.11,1-6.85.82-6.28-2.47.54-9.01-1.12-18.55.38-27.49,2.89-5.91,5.84-1.28,2.71-11-2.73-4.01-6.71-6.95-9.72-10.72-.9-4.16-2.64-14.17,3.85-12.85ZM136.61,62.3c1.26-.89,3.35-.7,4.78-1.5,2.25.36,3.72,1.13,3.55,3.77-.15,5.38,3.41,20.62-5.52,16.35-2.23-1.21-3.94-2.59-3.28-5.43.11-3.29-.52-11.19.48-13.19ZM95.97,91.74c3.58-5.76,5.99-11.28,12.69-13.77,2.64-1,4.68,1.32,7.08,1.67,2.42-.21,4.41.64,6.53,1.6,3.17-.25,5.51,1.69,8.5,2.05,3.72,1.91,8.23,1.14,11.6,3.12,2.27.84,4.98-.08,6.84,1.77,2.05,1.06,4.27.22,6.4,1.49,1.77,1.51,4.13.68,6.13,1.14,4.47,2.36,9.83,2.23,13.79,5.74,3.35,2.17,6.49,4.4,9.1,7.53,2.54,2.18,1.7,5.57-1.47,2.83-3.66-3.92-10.8-6.96-15.18-2.5-2.51,2.23-3.55,5.68-5.28,8.53-2.34,2.76-7.02,6.01-10.54,3.49-1.7-1.02-3.97-.49-5.72-1.43-1.65-1.46-3.9-.75-5.78-1.46-1.95-2.03-4.77-1.39-7.14-2.22-2.39-1.34-5.23-1.12-7.58-2.68-1.67-.29-3.77-.01-5.2-1.16-1.98-1.57-4.9-.39-6.78-2.24-4.5-.97-8.93-1.82-12.94-3.76-6.42.02-9.55-4.63-5.05-9.75ZM75.69,135.96c6.64,5.29,13.31,10.69,20.35,15.44,3.81,3.39,9.1,2.28,13.88,2.26,2.37-.41,4.41-2.09,6.94-2,4.98-.66,5.63,3.45,2.39,6.41-2.08,1.23-4.96.16-6.88,2.01-1.61.88-3.57.04-5.23.68-1.14.63-2.25,1.46-3.6,1.6-3.24-.06-5.84,1.69-8.88,2.42-9.47,4.75-13.51,14.86-18.12,23.66-.67,3.82-1.09,8.08,2.34,10.61,1.92,1.22,2.89,22.27-2.48,16.42-3.08-1.33-7.78-3.38-7.16-7.45,2.71-7.92-6.6-88.72,6.44-72.08ZM59.5,175.18c2.81-2.68,5.43.14,2.91,2.8-3,1.6-5.43,4.24-6.69,7.37-1.54,1.91-.86,2.72-1.34,4.8-2.33,3.46-1.07,6.9.25,10.45,4.68,12.63,18.71,19.9,30.67,23.75,1.74,1.37,3.99,1.46,6,1.97,1.8,1.48,3.99,1.4,6.2,1.62,2.97,1.83,6.3,1.31,9.55,2.15,11.47,2.94,23.54,3.43,35.5,3.12,28.09,1.66,74.26-.12,94.2-22.11,6.63-7.88,8.37-19.77,1.63-28.11-1.81-3.72-8.22-3.55-8.57-7.82,2.32-4.73,9.62,2.09,12.47,3.72,12.16,7.22,12.11,24.35,2.79,33.91-13.78,14.94-34.26,19.32-53.11,23.15-37.97,4.71-78.3,4.38-114.23-8.76-23.64-9.64-52.2-33.32-18.22-52ZM59.99,200.76c-3.13-4.1-1.87-10.96,1.16-14.72,5.12-4.39,3.31,27.76-1.16,14.72ZM245.85,240.46c-12.78,12.89-30.68,18.06-47.41,22.77-6.44.74-12.17,2.66-18.82,2.31-5.67,1.75-11.29,1.99-17.29,1.54-38.57,1.6-84.33-3.39-113.24-30.26-1.97-2.05-4.15-4.41-4.8-7.22.25-5.33-2.34-13.82,1.52-17.71,3.49,2.02,6.11,5.67,9.35,8.16,6.17,4.3,12.79,7.91,19.52,10.96,44.39,16.9,112.91,17.83,156.51-1.93,6.15-3.29,11.91-7.37,16.67-12.59,8.51-7.57,4.34,21.11-2.01,23.97ZM178.95,138.98c1.04-10.36,2.11-19.47-9.2-13.16-1.96.64-2.77,17.5,1.41,16.75,2.57-1.81,6.06-.59,7.79-3.59ZM90.5,216.68c1.35.68,3.13.08,4.45.92.67.41,1.21,1.09,2.03.89,2.81-.76,2.1-7.25,2.23-10.59.78-5.01-1.87-8.17-6.92-7.91-5.32-1.64-3.32,5.92-3.43,10.87-.06,2.04-.31,4.56,1.65,5.82Z"/>
</svg>