<?xml version="1.0" encoding="UTF-8"?>
<svg id="Layer_1" data-name="Layer 1" xmlns="http://www.w3.org/2000/svg" version="1.1" viewBox="0 0 300 300">
  <defs>
    <style>
      .cls-1 {
        fill: #221f1f;
        fill-rule: evenodd;
        stroke-width: 0px;
      }
    </style>
  </defs>
  <path class="cls-1" d="M288.51,174.21c-9.44-11.07,1.42-4.35,7.19-9.7-.62-2.97-4.1-4.87-4.98-8.07-.22-.86-.79-1.52-1.55-1.94-2.17-1.28-1.48-4.24-3.71-5.45-1.51-.93-1.81-3.14-2.67-4.69-2.69-2.18-2.41-2.37-3.62-5.48-1.89-1.34-3.09-3.13-3.75-5.51-1.2-1.41-2.92-2.4-3.38-4.45-.93-4.06-8.03,2.08-11.4-5.47-6.67-8.6,7.56-2.64,10.85-6.93-1.36-2.48-3.82-6.12-6.42-7.99-4.25-4.55-8.31-9.4-13.08-13.42-6.18-6.57-11.96-20.31-20.83-11.42-1.98.74-.66-1.57-3.09-4.67-5.97-6.96-13.01-14.29-18.3-20.09-3.12-2.77-11.63-15.34-15.94-13.03-.88,1.28-2.85,3.74-4.69,2.7-2.21-5.7-9.3-9.93-12.29-15.71-3.26-2.33-5.42-5.78-8.36-8.44-3.09-3.03-6.47-6.24-8.92-9.81-9.02-9.79-14.06,9.42-21.41,12.61-5.29,6.74-12.3,11.76-17.07,18.92-.24,3.89-3.73,3.06-5.2.31-2.85-5.68-33.03,29.63-36.28,35.32-.09,5.6,14.36.45,11.39,5.34-2.11,3.98-6.76,7.77-9.92,2.46-3.7-2.94-8.99-12.91-14-7.93-8,9.57-23.14,26.34-31.71,33.29-1.91-.03-3.23-3.02-4.65-3.96-2.51-.23-3.09,3.58-4.81,4.64-2.16,1.44-2.01,4.81-4.52,6.16-4.96,8.54-11,16.67-16.46,24.83-3.66,9.23,9.23,1.4,8.41,7.36-.69,4.21-2.79,3.74-3.84,5.72-.83,1.96-2.52,5.32-4.19,6.31-7.65,12.26,24.14,1.51,26.14,7.71-9.16,11.14,14.28,1.47,8.75,11.23-48.37,45.97,26.34-.31-17.01,40.98-1.18,1.44-6.09,4.55-2.69,6.1,11.12,4.13,27.57-1.11,39.44,2.35,1.77,4.23-.44,10.5,1.11,15.49.6,1.98,2.99,2.26,4.19.95-3.12-21.26,7.65-19.19,27.11-16.64.94.71-.11,2.18-.62,2.84-3.48,2.1-2.4,6.41,1.81,6.71,2.62.54,6.35-.38,9.29.28,4.06,3.28-3.65,7.1-5.46,9.22-2.3,3.65-6.02,6.07-8.43,9.57-12.39,12.76,28.39,4.02,36.17,7.09,4.53.79-2.4,17.37,5.55,15.21,2.67-.57,1.48-2.88,1.57-4.9-.95-14.48,6.43-10.32,21.04-10.65,32.53-.77,16.51,2.01,14.45-13.67,12.78-1.48,16.25-.26,14.85,14.45-.08,1.35.01,1.77,1.15.98,10.22-17.48-8.37-16.26,26.56-16,2.98-9.12-20.82-22.05-1.07-20.36.95.17,1.14-.56,1.01-1.3-.82-6.32,18.19-5.03,22.23-2.94,1.17,2.93-2.03,11.79,2.92,12.29,3.75.55,2.79-3.54,3.04-5.98-2.47-15.74,22.83-2.64,30.63-8.84,3.44-3.87-12.56-11.12-11.66-17.47.4-3.33,7.41.07,9.35-2.51.56-.65.17-1.52-.31-2.11-2.17-4.17-6.16-7.26-8.91-10.74-.72-1.85-4.41-2.91-3.43-5.24,1.36-2.46,6.09-.7,7.37-2.19.83-.81,1.89-2.01,3.09-2.06,5.56,1.71.75,17.22,5.82,16.45,4.47-1.49.84-10.25,1.68-14.45,3.69-6.34,24.3,2.09,20.92-6.77-1.16-2.51-4.21-3.78-4.45-6.86ZM235.09,87.56c5.67-1.83,8.21,6.99,12.21,9.28,30.96,28.94-3.97,10.54,1.23,21.1,3.82,4.81,7.88,8.59,12.29,13.14,2.73,2.19.36,6.26-2.05,7.59-2.15,5.66-7.7,10.38-10.34,15.98-1.73,1.98-3.32,4.31-4.74,6.69-5.62,4.63-4.45-9.27-13.73.91-1.38,1.65-3.17,3.63-5.57,1.9-1.61-2.88-6.76-5.57-6.85-9.01.89-3.17,14.42.56,11.57-5.01-2.79-4.32-6.55-7.8-9.8-11.61-2.14-1.98-6.72-5.06-4.85-8.53,3.29-4.49,11.4-9.48,10.84-15.39-.46-.77-3.65-.39-4.66-.4-12.38.76-3.84-7.54.72-11.04,4.49-4.96,8.75-10.36,13.73-15.6ZM249.96,170.99c-2.83.99-4.55-4.78-.83-4.55,2.46-.09,2.46,3.21.83,4.55ZM174.25,207.65c-2.35,2.37-3.78,5.44-5.36,8.45-3.17,3.2-5.16,8.03-8.26,11.12-3.43.42-9.01-6.57-9.27-9.42-.2-2.58,9.66-.11,11.88-2.25,2.74-3.18-3.46-5.32-4.65-8.22-5.48-4.06-10.42-12.64-16.23-17.04-3.49-5.6-12.14-7.95-3.3-14.19,1.04-.49.73-1.29,1.46-1.85,1.22-.54,1.59-1.83,2.76-2.46.47-.62.73-1.35,1.51-1.67.83-.76,1.03-1.8,2.22-2.14,1.19-2.06,3.18-3.64,4.79-5.62,1.64-2.39,3.95.59,5.07,1.74,1.11.79,2.02,2.11,3.09,2.88.69,1.81,1.25.79,2.12,2.53,8.74,8.98,24.3,21.01,4.56,19.05-.98.13-2.12,1.16-2.39,2.05,1.52,5.83,14.9,11.1,9.98,17.03ZM158.28,249.38c-2.5-.46-4.64-4.38-1.75-5.85,5.13-2.05,7.25,4.64,1.75,5.85ZM93.84,172.73c-5.59-4.72-5.15-7.33.87-11.6,1.26-1.84,2.88-3.31,4.52-4.85.73-2.14,3.39-3.2,3.68-5.37-.21-2.59-5.17-.71-6.98-1.49-14.71-.45,5.36-14.81,10.37-20.45,5.05-12.24,13.91-4.27,18.47,5.08,4.18,2.19,7.4,7.78,10.63,10.16,5.24,8.47-14.39,1.19-10.05,9.38,10.51,8.09,19.23,19.16,3.39,23.96-8.18,8.51-14.6,16.07-23.41,24.78-2.21,1.31-3.84-1.81-5.24-3.01-5.22-4.96-11.04-10.85-14.99-16.77.98-5.95,20.33,1.38,8.75-9.83ZM142.43,114.47c-16.03,2.17-10.64-7.91.99-15,1.06-3.34,4.22-7.12,6.87-8.65,4.29-9.68,13.04,3.55,15.21,7.78,4.42,3.58,9.02,7.56,12.16,12.25,2.38,7.56-19.2-1.76-9.53,9.2,21.23,17.19-.36,15.33-6.01,32.11-.11,2.97,10.61-.24,12.14,2.58-.1,3.64-4.48,6.24-6.71,8.48-4.59,6.5-11.66-15.92-18.24-5.89-2.33,2.43-4.84,7.53-8.93,5.14-6.88-6.93-7.46-9.97,3.5-9.05,12.1.57-12.53-17.57-12.52-21.94,1.77-6.09,12.52-10.61,12.28-16.26.03-.78-.61-.82-1.21-.75ZM134.91,87.33c.08-4.83,9.39-1.18,12.31-2.97,1.71,2.1-2.22,4.46-3.31,6.18-2.59,3.98-7.57-.59-9-3.21ZM177.48,192.85c6.35-1.82,5.95,5.39.7,5.45-2.53-1.33-3.69-4.53-.7-5.45ZM174.33,175.24c-12.33-7.64,7.72-16.83,10.19-22.83-.22-9.1-24.53,5.1-1.79-17.39,3.91-2.15,10.28-15.96,15.29-12.01.99,2.28,3.05,3.14,4.38,5.15.93,1.65,2.96,2.12,3.75,4.02.36.7.9,1.27,1.59,1.65,4.23,2.6,6.51,7.47,10.27,10.68,5.43,8.97-19.47.54-9.34,10.57.95.3,1.49.63,1.82,1.57,1.19.69,1.58,1.75,2.42,2.76,5.23,2.56,14.14,15.12,4.02,15.11-4.94-3.83-9.8-11.77-13.87-14.56-7.88-5.12-20.52,31.86-28.73,15.28ZM203.75,118.49c2.82-.04,11.11-1.62,11.64,1.98-1.13,3.02-6.19,9.57-8.81,4.7-1.39-1.68-6.22-4.92-2.83-6.67ZM228.41,84.49c2.07-.34.14,3.84-1.12,4.08-.81,2.18-3.99,5.13-6.02,2.59-8.9-8.52,1.79-5.67,7.14-6.67ZM211.33,68.06c8.92,9.76,13.34,11.35-3.12,11.32-2.15,1.77-.67,3.99,1.13,6.23,2,2.76,12.5,10.83,8.97,13.26-5.09,5.69-10.67,10.99-15.34,16.46-.84,7.05-4.29-.48-7.3-.95-4.2,2.24-10.2,13.1-13.74,12.68-1.76-2.16-4.65-3.07-5.46-5.99-1.03-5.73,13.18.75,12.1-5.11-2.6-6.19-17.17-14.03-15.06-21.11,2.61-1.93,4.3-5.06,7.04-6.64,10.91-14.86-3.62-4.62-8.11-11.53,4.79-6.4,10.62-11.61,15.69-16.35,6.06-14.51,16.98-.09,23.21,7.71ZM182.03,57.71c-2.88-1.03-8.89-6.31-3.78-8.05,10.27-2.58,12.9,3.86,3.78,8.05ZM153.97,18.31c.68-.35,1.75-.18,2.29.36,5.55,6.6,15.35,15.83,20.93,23.07,1.49,5.45-5.14,3.88-10.48,3.93-4.1,6.17,13.34,11.12,9.96,19.31-4.33,5.43-10.9,9.63-14.12,15.74-5.97,8.68,13.1-.06,11.37,7.3-1.48,2.11-5.57,5.69-7.43,3.05-1.75-1.99-4.15-3.01-4.88-5.75-1.33-1.9-5.02-3.45-6.33-5.23-2.2-.8-4.89,4.43-6.48,3.45-4.21-8.21-12.21-12.63-17.18-20.63-.86-3.59,13.86-12.24,11.76-17.12-26.57,3.14,4.16-20.28,10.57-27.48ZM122.94,49.67c3.87-.63,13.79-.57,8.3,5.27-1.17,1.26-2.87,3.67-4.92,2.76-1.89-1.22-8.1-6.47-3.37-8.02ZM102.89,82.23c-.23-6.02-12.62-.79-12.74-4.92,1.98-2.65,3.99-5.79,6.85-7.51,3.95-3.97,15.14-24.16,20.72-13.27,1.44,1.03,2.81,2.33,3.76,3.86,2.43,1.32,3.26,4.18,5.24,5.99,25.92,21.9-10.31,5.26-.04,19.45,2.54,2.11,4.66,4.52,7.01,6.93,1.68,1.69,3.53,3.81,1.98,6.42-1.84,2.13-16.83,15.45-14.33,18.61,2.12,2.62,14.06-2.55,10.65,5.07-2.09,1.18-3.14,5.22-6.06,3.98-1.75-1.26-2.98-3-4.33-4.64-.98-3.23-4.84-4.26-6.66-6.81-.47-.75-1.18-1.34-2.1-.95-7.33,6-14.09,20.99-20.48,5.93-.7-3.77,13.23-.58,12.54-4.14-13.86-16.1-21.36-17.84-2.02-34ZM59.68,98.28c1.06-1.4,1.9-3.28,3.64-4.07.8-.79,1.01-1.88,2.18-2.26,4.8-11.31,13.36,1.76,16.56,7.08,3.84,2.83,6.51,6.43,10.18,9.72,6.71,13.99-26-5.64-1.2,18.7,6.58,4.49,2.61,9.01-2.34,12.32-1.37,2.23-3.63,3.51-4.99,5.74-2.08.81-2.58,3.41-4,5.13-1.21,4.5,7.75,2.3,10.64,3.22.97.2,1.01.8.74,1.65-3.66,13.84-9.67,3.04-16.99-3.67-1.88-2.99-4.81-5.02-6.96-7.74-4.97-6.85-7.48,4.53-12.32.87-1.04-1.26-1.42-3.64-2.61-4.62-2.39-1.51-2.57-4.89-4.77-6.49-1.24-6.24,9.23-11.02,12.26-16.4,1.03-1.67-.53-3.07-2.36-3.25-19.47,2.15-4.54-10.01,2.33-15.91ZM49.14,154.5c-1.29.2-1.42-1.95-.35-2.26,1.35-.14,1.75,2.02.35,2.26ZM40.78,118.37c14.95-3.25,4.22,13.61-.14,5.76-1.48-1.63-3.16-5.33.14-5.76ZM13.41,164.64c-1.05-2.44,2.94-5.08,4.33-7.06.63-2.72,2.72-3.45,3.74-5.48,7.54-11.48-17.36-.57-4.18-14.08.99-2.2,2.04-4.18,3.84-5.8.79-1.65,1.75-4.18,3.62-5.06,3.78-9.93,7.77-8,11.8.07,1.97,1.7,2.53,3.78,3.89,6.08,3.05,1.2,3.74,5.2,5.71,7.44,6.28,5.02-1.24,5.76-5.18,5.63-1.04.19-3.93,2.69-2.19,3.66,1.18.72,2.3,2.51,2.67,4.09.27,1.45,1.16.99,1.72,1.86.14,1.28,1.54,1.83,1.83,2.91-2.26,10.39-27.41,11-31.6,5.75ZM85.11,228.93c-17.49-1.93-33.23.33-50.29-.68-10.15-1.1,2.15-8.69,4.62-11.85.44-1.13,1.4-1.52,2.13-2.36.4-.97.55-.89,1.39-1.39,1.63-1.49,2.62-4.18,4.37-5.71.56-.64,1.83-.94,1.35-1.9-3.59-7.48-22.01,2.09-12.06-9.62,3.82-4.78,10.8-10.61,15.99-16.09,1.95-5.72-8.88-3.13-11.84-4.18.07-7.4,17.41-22.12,22.62-26.54,3.09-.33,12.21,13.55,15.53,15.26,11.38,10.66,7.82,12.45-3.74,11.92-3.64,10.4,37.21,28.93,6.08,26.53-13.01,7.68,35.37,26.84,3.86,26.61ZM93.35,214.57c-1.25.03-1.39-1.01-2.09-1.81-1.74-1.71-4.59-4.85-.52-5.44,9.48-1.09,10.29,2.62,2.6,7.25ZM98.5,216.66c6.98-1.34,13.1.32,5.65,6.84-3.14,1.21-9.27-4.53-5.65-6.84ZM98.74,259.11c5.01-4.63,9.49-10.53,14.78-14.52,6.41-10.89-12.81-2.95-13.89-7.77-.18-4.22,8.43-2.24,7.39-7.6,2.99-10.06,20.61-15.79,4.17-18.18-4.87-.01-6.12-2.04-1.93-5.22,1.19-.65,1.17-2.26,2.71-2.48,16.57-17.48,13.63-26.36,32.41-4.07,1.49,3.87,10.25,7.19,7.44,11.47-2.96,1.46-8.66-.41-11.52,2.62.03,6.46,32.24,26.53,11.06,25.37-2.21.2-5.33-1.15-6.66,1.19-2.96,5.35,17.57,16.02,17.25,23-5.39,2.54-74.33,5.53-63.2-3.8ZM202.17,249.59c-6.21,3.57-27.65,3-35.58.38-.7-2.92,2.34-6.55,4.69-7.72.99-3.99,3.32-4.43,4.57-7.87,4.89-5.19-12.54-2.49-8.97-7.49,2.05-2.4,3.76-4.9,5.07-7.75,3.96-3.41,6.78-12.09,10.65-14.06,2.22-3.74,5.34,1.38,5.75,3.83,5.14,4.13,7.95,11.55,12,16.85,5.23,7.56-15.05,1.89-5.88,11.48,1.74.88,2.57,3.24,3.21,5.09,2.36,1.31,4.21,4.1,4.49,7.27ZM205.7,221.43c-1.58.66-3.21-2.22-4.48-3.47-2.61-3.18-4.85-6.62-5.66-8.79-2.27-1.14-3.12-3.71-4.19-5.87-2.44-1.31-4.06-6.31-6.41-8.73-.47-1.79,2.62-1.9,2.99-3.32-.14-2.19-3.95-4.39-3.55-6.69,4-4.86,7.69-11.12,12.95-14.5,1.78-5.78,7.12-2.95,9.58,1.18,1.2,2.86,6.95,5.16,6.46,8.87-.56,1.66-2.59,2.35-3.21,3.9-.32.76-1.45.62-1.59,1.51-.35,4.1,4.32,2.94,7.18,3.8,6.25,4.31-24.7,20.59-6.03,20.06,10.21-1.06-1.88,10.5-4.03,12.05ZM256.13,203.93c-2.18,2.46-8.19-.19-10.12,2.19-2.12,2.59,8.74,10.66,10.98,13.83,6.63,8.49-36.65,2.13-41.15,4.1-9.99.28,6.62-11.91,8.92-16.08,1.2-1.67-1.11-2.75-2.6-2.87-17.34,1.28-.07-10.73,3.55-15.49,2.05-1.84,2.55-5.64-1.14-4.9-9.4-.14-1.7-8.35,2.41-11.11,3.64-4.15,7.62-13.07,12.58-4.59.65,1.27,1.63.92,2.09,1.81.42,1.22,1.84,1.46,2.26,2.71,2.2,2.2,4.19,4.44,6.52,6.56.75.9.88,2.42-.08,3.22-17.29,2.23,4.95,11.32,5.79,20.62ZM280.23,180.98c-53.88,4.84-1.96-19.07-28.33-19.34-1.02-1.75-.71-3.93,1.11-4.87.55-1.59,1.52-3.85,2.87-4.67,2.86-3.23,7.19-11.77,9.74-13.34,1.1-3.97,5.3-5.38,6.26-.39,1.77,1.16,2.94,3.45,3.65,5.61,2.5.94,2.73,3.66,3.97,5.76,2.13.81,2.68,3.44,3.67,5.31,1.26.81,1.68,2.27,2.78,3.28.39,1,.46,3.16-.91,3.44-15.71-.69-2.64,8.43-.71,17.96-.3,1.65-2.9.92-4.1,1.26Z"/>
</svg>