<?xml version="1.0" encoding="UTF-8"?>
<svg id="Layer_1" data-name="Layer 1" xmlns="http://www.w3.org/2000/svg" version="1.1" viewBox="0 0 300 300">
  <defs>
    <style>
      .cls-1 {
        fill: #000;
        fill-rule: evenodd;
        stroke-width: 0px;
      }
    </style>
  </defs>
  <path class="cls-1" d="M151.59,193.86l35.98,26.14c4.85,3.52,11.38-1.22,9.52-6.92l-13.74-42.3c-.36-1.11.03-2.34.98-3.03l35.98-26.14c4.85-3.52,2.36-11.2-3.64-11.2h-44.48c-1.17,0-2.21-.75-2.57-1.87l-13.74-42.3c-1.85-5.7-9.92-5.7-11.77,0l-13.74,42.3c-.36,1.11-1.4,1.87-2.57,1.87h-44.48c-6,0-8.49,7.67-3.64,11.2l35.98,26.14c.95.69,1.35,1.91.98,3.03l-13.74,42.3c-1.85,5.7,4.67,10.44,9.52,6.92l35.98-26.14c.95-.69,2.23-.69,3.18,0Z"/>
</svg>